<svg width="220" height="44" viewBox="0 0 220 44" fill="none" xmlns="http://www.w3.org/2000/svg">
<g clip-path="url(#clip0)">
<path d="M55.645 22.0881C55.3768 22.0881 55.1598 22.0001 54.981 21.8241C54.8023 21.6481 54.7129 21.4218 54.7129 21.1704V9.1018C54.7129 8.82522 54.8023 8.61151 54.981 8.43551C55.1598 8.25951 55.3896 8.17151 55.645 8.17151H59.2712C60.1778 8.17151 60.9822 8.37265 61.6844 8.76237C62.3867 9.15208 62.9358 9.69265 63.3188 10.3967C63.7146 11.0881 63.9062 11.8927 63.9062 12.7978C63.9062 13.6652 63.7146 14.4321 63.3188 15.1109C62.923 15.7898 62.3739 16.3178 61.6844 16.6949C60.9822 17.0721 60.1778 17.2607 59.2712 17.2607H56.5899V21.1704C56.5899 21.4344 56.5005 21.6481 56.3217 21.8241C56.143 22.0001 55.9259 22.0881 55.645 22.0881ZM56.5899 15.5509H59.2712C59.8203 15.5509 60.3182 15.4378 60.7396 15.1989C61.1609 14.9601 61.4929 14.6332 61.7355 14.2184C61.9781 13.8035 62.093 13.3258 62.093 12.7978C62.093 12.2321 61.9781 11.7292 61.7355 11.2892C61.4929 10.8492 61.1609 10.5098 60.7396 10.2584C60.3182 10.0069 59.833 9.88122 59.2712 9.88122H56.5899V15.5509Z" fill="#3D9266"/>
<path d="M55.6448 22.2264C55.3384 22.2264 55.083 22.1258 54.8787 21.9246C54.6744 21.7235 54.5723 21.4721 54.5723 21.1704V9.10178C54.5723 8.78749 54.6744 8.53606 54.8915 8.33492C55.0958 8.13377 55.3511 8.0332 55.6576 8.0332H59.2838C60.2031 8.0332 61.0459 8.23435 61.7609 8.63663C62.4759 9.03892 63.0505 9.60463 63.4463 10.3212C63.8421 11.0378 64.0464 11.8675 64.0464 12.7852C64.0464 13.6652 63.8421 14.4698 63.4463 15.1738C63.0377 15.8652 62.4759 16.4184 61.7609 16.8081C61.0459 17.1978 60.2159 17.3989 59.2838 17.3989H56.7429V21.1704C56.7429 21.4721 56.6408 21.7235 56.4365 21.9246C56.2194 22.1258 55.964 22.2264 55.6448 22.2264ZM55.6448 8.2972C55.415 8.2972 55.2235 8.37263 55.0702 8.52349C54.917 8.67435 54.8404 8.86292 54.8404 9.10178V21.1704C54.8404 21.3966 54.917 21.5852 55.0702 21.7361C55.2235 21.8869 55.415 21.9624 55.6448 21.9624C55.8874 21.9624 56.0789 21.8869 56.2322 21.7361C56.3854 21.5852 56.462 21.3966 56.462 21.1704V17.1349H59.271C60.1521 17.1349 60.9437 16.9464 61.6204 16.5818C62.2972 16.2172 62.8334 15.7018 63.2037 15.0481C63.5868 14.3943 63.7783 13.6401 63.7783 12.7978C63.7783 11.9178 63.5868 11.1383 63.2037 10.4595C62.8207 9.7932 62.2972 9.25263 61.6204 8.87549C60.9437 8.49835 60.1521 8.30977 59.2838 8.30977H55.6448V8.2972ZM59.271 15.6766H56.462V9.74292H59.271C59.8456 9.74292 60.3691 9.8812 60.8033 10.1326C61.2502 10.3966 61.5949 10.7612 61.8503 11.2138C62.1056 11.6663 62.2333 12.1943 62.2333 12.7852C62.2333 13.3383 62.1056 13.8412 61.8503 14.2812C61.5949 14.7212 61.2502 15.0606 60.8033 15.3121C60.3564 15.5509 59.8456 15.6766 59.271 15.6766ZM56.7174 15.4126H59.2583C59.7818 15.4126 60.2542 15.2995 60.6628 15.0732C61.0586 14.8469 61.3778 14.5326 61.6077 14.1429C61.8375 13.7532 61.9524 13.2881 61.9524 12.7852C61.9524 12.2446 61.8375 11.7543 61.6077 11.3395C61.3778 10.9246 61.0586 10.5978 60.6628 10.3589C60.267 10.1201 59.7946 10.0069 59.271 10.0069H56.7301V15.4126H56.7174Z" fill="#3D9266"/>
<path d="M69.9711 22.0881C69.4348 22.0881 68.9752 21.9498 68.5538 21.6607C68.1452 21.3715 67.826 20.9818 67.5962 20.4915C67.3664 20.0012 67.2515 19.4355 67.2515 18.7944V9.06408C67.2515 8.80008 67.3408 8.58637 67.5068 8.42294C67.6728 8.25951 67.8899 8.17151 68.158 8.17151C68.4261 8.17151 68.6432 8.25951 68.8092 8.42294C68.9752 8.58637 69.0646 8.80008 69.0646 9.06408V18.7944C69.0646 19.2344 69.1539 19.5989 69.3199 19.8881C69.4859 20.1772 69.703 20.3155 69.9711 20.3155H70.418C70.6606 20.3155 70.8521 20.4035 71.0053 20.5669C71.1586 20.7304 71.2352 20.9441 71.2352 21.2081C71.2352 21.4721 71.1203 21.6858 70.8904 21.8492C70.6606 22.0127 70.3669 22.1007 69.9967 22.1007H69.9711V22.0881Z" fill="#3D9266"/>
<path d="M70.0097 22.2264H69.9714C69.4096 22.2264 68.9117 22.0755 68.4775 21.7738C68.0434 21.4721 67.7114 21.0698 67.4688 20.5544C67.2262 20.0515 67.1113 19.4606 67.1113 18.7944V9.06406C67.1113 8.76235 67.2135 8.52349 67.405 8.32235C67.5965 8.13377 67.8519 8.0332 68.1583 8.0332C68.4648 8.0332 68.7074 8.13377 68.9117 8.32235C69.1032 8.51092 69.2053 8.76235 69.2053 9.06406V18.7944C69.2053 19.2092 69.2819 19.5486 69.4352 19.8126C69.5756 20.0515 69.7544 20.1772 69.9714 20.1772H70.4183C70.6992 20.1772 70.9291 20.2778 71.1078 20.4664C71.2866 20.6549 71.3632 20.9064 71.3632 21.1955C71.3632 21.4972 71.2227 21.7486 70.9674 21.9498C70.7248 22.1384 70.3928 22.2264 70.0097 22.2264ZM68.1583 8.2972C67.9285 8.2972 67.7498 8.36006 67.5965 8.51092C67.4561 8.6492 67.3795 8.83777 67.3795 9.06406V18.7944C67.3795 19.4104 67.4944 19.9635 67.7114 20.4412C67.9285 20.9064 68.2349 21.2835 68.6308 21.5601C69.0138 21.8241 69.4607 21.9624 69.9714 21.9624H70.0097C70.3417 21.9624 70.6099 21.8869 70.8141 21.7361C71.0057 21.5978 71.1078 21.4218 71.1078 21.1955C71.1078 20.9692 71.044 20.7806 70.9163 20.6424C70.7886 20.5041 70.6354 20.4412 70.4311 20.4412H69.9714C69.6522 20.4412 69.3969 20.2778 69.2053 19.9509C69.0266 19.6492 68.9372 19.2595 68.9372 18.7944V9.06406C68.9372 8.83777 68.8734 8.66177 68.7201 8.51092C68.5669 8.37263 68.3882 8.2972 68.1583 8.2972Z" fill="#3D9266"/>
<path d="M78.4368 22.1635C77.5557 22.1635 76.7641 21.9498 76.0618 21.5098C75.3596 21.0698 74.8105 20.4915 74.4019 19.7498C73.9934 19.008 73.7891 18.1658 73.7891 17.2229C73.7891 16.28 74.0061 15.4378 74.453 14.696C74.8999 13.9418 75.4873 13.3509 76.2406 12.9235C76.9939 12.4835 77.8494 12.2698 78.7815 12.2698C79.7136 12.2698 80.5691 12.4835 81.3224 12.9235C82.0758 13.3635 82.6631 13.9543 83.11 14.696C83.5569 15.4503 83.7739 16.2926 83.7739 17.2229H83.0717C83.0717 18.1658 82.8674 19.008 82.4588 19.7498C82.0502 20.4915 81.5012 21.0823 80.7989 21.5098C80.1094 21.9498 79.3178 22.1635 78.4368 22.1635ZM78.807 20.5543C79.4199 20.5543 79.969 20.4035 80.4542 20.1143C80.9394 19.8252 81.3224 19.4229 81.5906 18.92C81.8715 18.4172 82.0119 17.8515 82.0119 17.2229C82.0119 16.5818 81.8715 16.0035 81.5906 15.5006C81.3096 14.9978 80.9266 14.5955 80.4542 14.3063C79.969 14.0172 79.4199 13.8663 78.807 13.8663C78.2069 13.8663 77.6579 14.0172 77.1727 14.3063C76.6875 14.5955 76.2917 14.9978 76.0108 15.5006C75.7299 16.0035 75.5894 16.5818 75.5894 17.2229C75.5894 17.8515 75.7299 18.4172 76.0108 18.92C76.2917 19.4229 76.6747 19.8252 77.1727 20.1143C77.6579 20.416 78.1942 20.5543 78.807 20.5543ZM82.8546 22.1132C82.5865 22.1132 82.3694 22.0252 82.1907 21.8492C82.0119 21.6732 81.9225 21.4595 81.9225 21.1955V18.48L82.2673 16.5943L83.7739 17.2355V21.208C83.7739 21.472 83.6846 21.6858 83.5058 21.8618C83.3526 22.0252 83.1228 22.1132 82.8546 22.1132Z" fill="#3D9266"/>
<path d="M78.4369 22.3017C77.5304 22.3017 76.7132 22.0755 75.9982 21.6355C75.2831 21.1955 74.7086 20.5795 74.3 19.8252C73.8914 19.0709 73.6743 18.1909 73.6743 17.2355C73.6743 16.28 73.9041 15.4 74.351 14.6332C74.7979 13.8663 75.4236 13.2503 76.1897 12.8103C76.9558 12.3703 77.8368 12.144 78.8072 12.144C79.7648 12.144 80.6459 12.3703 81.412 12.8103C82.1781 13.2503 82.791 13.8663 83.2378 14.6332C83.672 15.3749 83.9018 16.2172 83.9146 17.1475V21.208C83.9146 21.5097 83.8124 21.7612 83.6081 21.9497C83.4038 22.1509 83.1485 22.2515 82.8548 22.2515C82.5484 22.2515 82.293 22.1509 82.1015 21.9497C81.8972 21.7486 81.795 21.4972 81.795 21.208V20.8937C81.5269 21.1703 81.2204 21.4217 80.8757 21.6355C80.1734 22.0755 79.3435 22.3017 78.4369 22.3017ZM78.8072 12.408C77.8879 12.408 77.0579 12.6217 76.3301 13.0366C75.6023 13.4515 75.015 14.0423 74.5809 14.7589C74.1595 15.488 73.9424 16.3177 73.9424 17.2229C73.9424 18.1406 74.1467 18.9577 74.5298 19.6869C74.9256 20.4035 75.4619 20.9817 76.1386 21.3966C76.8153 21.8115 77.5814 22.0252 78.4369 22.0252C79.2924 22.0252 80.0585 21.8115 80.7352 21.3966C81.1311 21.1452 81.4886 20.8435 81.795 20.4915V18.8195C81.7695 18.8823 81.7312 18.9326 81.7056 18.9955C81.412 19.5235 81.0161 19.9383 80.5182 20.24C80.0202 20.5417 79.4329 20.6926 78.7944 20.6926C78.1688 20.6926 77.5942 20.5417 77.0835 20.24C76.5727 19.9383 76.1642 19.5235 75.8705 18.9955C75.5768 18.4675 75.4236 17.8766 75.4236 17.2229C75.4236 16.5566 75.5768 15.9657 75.8705 15.4377C76.1642 14.9097 76.5727 14.4949 77.0835 14.1932C77.5942 13.8915 78.1688 13.7406 78.7944 13.7406C79.4329 13.7406 80.0074 13.8915 80.5182 14.1932C81.0161 14.4949 81.4247 14.9097 81.7056 15.4377C81.9227 15.8275 82.0504 16.2675 82.1142 16.7326L82.1781 16.3932L83.6464 17.0217C83.6209 16.192 83.4038 15.4252 83.008 14.7589C82.5867 14.0297 81.9993 13.4515 81.2715 13.0366C80.5437 12.6092 79.7138 12.408 78.8072 12.408ZM82.0759 20.592V21.208C82.0759 21.4343 82.1525 21.6229 82.293 21.7612C82.4462 21.912 82.625 21.9749 82.8548 21.9749C83.0846 21.9749 83.2762 21.8995 83.4166 21.7612C83.5698 21.6103 83.6337 21.4343 83.6337 21.208V17.3612H83.1995C83.1868 18.2663 82.9697 19.096 82.5739 19.8126C82.4334 20.0892 82.2674 20.3532 82.0759 20.592ZM78.8072 14.0046C78.2326 14.0046 77.7091 14.1429 77.2367 14.4195C76.7643 14.696 76.394 15.0857 76.1259 15.5635C75.8577 16.0412 75.7173 16.6069 75.7173 17.2229C75.7173 17.8263 75.8577 18.3795 76.1259 18.8572C76.394 19.3349 76.7643 19.7246 77.2367 20.0012C77.6964 20.2777 78.2326 20.416 78.8072 20.416C79.3946 20.416 79.9308 20.2777 80.3905 20.0012C80.8502 19.7246 81.2204 19.3349 81.4886 18.8572C81.7567 18.3795 81.8844 17.8263 81.8844 17.2229C81.8844 16.6069 81.7439 16.0537 81.4886 15.5635C81.2204 15.0857 80.8502 14.696 80.3905 14.4195C79.9181 14.1429 79.3946 14.0046 78.8072 14.0046ZM82.3824 16.7703L82.0632 18.4926V20.1395C82.1653 19.9886 82.2547 19.8377 82.3441 19.6869C82.7399 18.9703 82.9314 18.1406 82.9314 17.2229V17.0972H83.1229L82.3824 16.7703Z" fill="#3D9266"/>
<path d="M89.2768 22.1132C89.0087 22.1132 88.7916 22.0252 88.6129 21.8492C88.4341 21.6732 88.3447 21.4595 88.3447 21.1955V13.2378C88.3447 12.9612 88.4341 12.7475 88.6129 12.5841C88.7916 12.4206 89.0087 12.3326 89.2768 12.3326C89.5577 12.3326 89.7748 12.4206 89.9408 12.5841C90.1068 12.7475 90.1961 12.9738 90.1961 13.2378V21.1955C90.1961 21.4595 90.1068 21.6732 89.9408 21.8492C89.7748 22.0252 89.545 22.1132 89.2768 22.1132ZM96.7081 22.1132C96.4399 22.1132 96.2229 22.0252 96.0441 21.8492C95.8653 21.6732 95.776 21.4595 95.776 21.1955V16.8081C95.776 16.1292 95.6483 15.5761 95.3929 15.1486C95.1375 14.7212 94.7928 14.4069 94.3714 14.1932C93.9373 13.9795 93.4521 13.8789 92.8903 13.8789C92.3795 13.8789 91.9199 13.9795 91.5113 14.1806C91.1027 14.3818 90.7707 14.6583 90.5281 14.9978C90.2855 15.3372 90.1706 15.7269 90.1706 16.1669H89.0342C89.0342 15.4126 89.213 14.7463 89.5833 14.1555C89.9535 13.5646 90.4515 13.0995 91.0899 12.7601C91.7284 12.4206 92.4434 12.2446 93.2478 12.2446C94.0778 12.2446 94.8311 12.4206 95.4823 12.7726C96.1462 13.1246 96.657 13.6401 97.04 14.3189C97.4231 14.9978 97.6146 15.8275 97.6146 16.8206V21.2081C97.6146 21.4721 97.5252 21.6858 97.3465 21.8618C97.1933 22.0252 96.9762 22.1132 96.7081 22.1132Z" fill="#3D9266"/>
<path d="M96.7084 22.2389C96.4019 22.2389 96.1466 22.1383 95.955 21.9372C95.7507 21.736 95.6486 21.4846 95.6486 21.1955V16.808C95.6486 16.1543 95.5209 15.6263 95.2911 15.2115C95.0485 14.8092 94.7293 14.5075 94.3207 14.3063C93.9121 14.1052 93.4396 14.0046 92.9034 14.0046C92.4182 14.0046 91.9713 14.1052 91.5882 14.2937C91.2052 14.4823 90.886 14.7463 90.6561 15.0606C90.4263 15.3749 90.3242 15.7395 90.3242 16.1543V21.1829C90.3242 21.4846 90.222 21.7235 90.0305 21.9246C89.8389 22.1257 89.5836 22.2263 89.2644 22.2263C88.9579 22.2263 88.7026 22.1257 88.511 21.9246C88.3067 21.7235 88.2046 21.472 88.2046 21.1829V13.2252C88.2046 12.9109 88.3067 12.6595 88.511 12.4709C88.7153 12.2823 88.9707 12.1817 89.2644 12.1817C89.5836 12.1817 89.8389 12.2823 90.0305 12.4709C90.1965 12.6343 90.2986 12.8606 90.3242 13.112C90.5412 12.9235 90.7838 12.76 91.0519 12.6217C91.7031 12.2697 92.4565 12.0938 93.2737 12.0938C94.1291 12.0938 94.8952 12.2823 95.572 12.6343C96.2487 12.9989 96.7977 13.5269 97.1808 14.2309C97.5766 14.9223 97.7681 15.7897 97.7681 16.7955V21.1829C97.7681 21.4846 97.666 21.736 97.4617 21.9246C97.2702 22.1383 97.0148 22.2389 96.7084 22.2389ZM92.9161 13.7532C93.4907 13.7532 94.0015 13.8663 94.4484 14.08C94.8952 14.2937 95.2655 14.6332 95.5337 15.0857C95.8018 15.5383 95.9295 16.1166 95.9295 16.808V21.1955C95.9295 21.4217 96.0061 21.6103 96.1466 21.7486C96.2998 21.8995 96.4785 21.9623 96.7084 21.9623C96.9382 21.9623 97.1297 21.8869 97.2702 21.7486C97.4234 21.5977 97.4872 21.4217 97.4872 21.1955V16.808C97.4872 15.8526 97.2957 15.0355 96.9382 14.3817C96.5679 13.728 96.0699 13.2252 95.4315 12.8857C94.7931 12.5463 94.0653 12.3703 93.2609 12.3703C92.4948 12.3703 91.7925 12.5337 91.1669 12.8732C90.8477 13.0492 90.5667 13.2503 90.3114 13.4892V15.1109C90.3497 15.048 90.388 14.9852 90.4263 14.9223C90.6817 14.5703 91.0264 14.2812 91.4478 14.0675C91.9074 13.8663 92.3799 13.7532 92.9161 13.7532ZM89.2771 12.4709C89.0473 12.4709 88.8558 12.5463 88.7153 12.6846C88.5621 12.8229 88.4983 13.0115 88.4983 13.2503V21.208C88.4983 21.4343 88.5749 21.6229 88.7153 21.7612C88.8685 21.912 89.0473 21.9749 89.2771 21.9749C89.5197 21.9749 89.7113 21.8995 89.8517 21.7612C89.9922 21.6103 90.0688 21.4343 90.0688 21.208V16.3177H88.9324V16.1795C88.9324 15.4126 89.1239 14.7086 89.507 14.1052C89.673 13.8412 89.8645 13.6023 90.0815 13.3886V13.2503C90.0815 13.0115 90.0177 12.8229 89.8645 12.6846C89.6985 12.5463 89.5197 12.4709 89.2771 12.4709ZM89.1878 16.0412H90.056V13.7783C89.9283 13.9166 89.8134 14.08 89.7113 14.2435C89.3921 14.7715 89.2133 15.3749 89.1878 16.0412Z" fill="#3D9266"/>
<path d="M107.166 22.1635C106.157 22.1635 105.276 21.9498 104.497 21.5349C103.718 21.1075 103.105 20.5292 102.671 19.7875C102.224 19.0458 102.007 18.1909 102.007 17.2229C102.007 16.2423 102.212 15.3875 102.633 14.6458C103.054 13.9041 103.629 13.3258 104.357 12.8983C105.097 12.4709 105.94 12.2698 106.898 12.2698C107.842 12.2698 108.647 12.4709 109.324 12.8858C110 13.3006 110.511 13.8663 110.869 14.5829C111.226 15.2995 111.405 16.1292 111.405 17.0721C111.405 17.2983 111.328 17.4869 111.175 17.6378C111.022 17.7886 110.818 17.8641 110.575 17.8641H103.271V16.4435H110.511L109.771 16.9463C109.758 16.3555 109.643 15.8149 109.413 15.3498C109.183 14.8846 108.864 14.5075 108.43 14.2309C108.008 13.9543 107.498 13.8161 106.885 13.8161C106.195 13.8161 105.608 13.9669 105.123 14.2561C104.638 14.5578 104.267 14.9601 104.012 15.4755C103.757 15.9909 103.629 16.5818 103.629 17.2355C103.629 17.8892 103.782 18.4675 104.076 18.9829C104.382 19.4983 104.791 19.9006 105.327 20.1898C105.863 20.4915 106.463 20.6298 107.153 20.6298C107.523 20.6298 107.906 20.5669 108.302 20.4286C108.698 20.2903 109.017 20.1395 109.247 19.9509C109.426 19.8252 109.63 19.7498 109.834 19.7498C110.051 19.7498 110.23 19.8126 110.383 19.9383C110.588 20.1143 110.703 20.3155 110.715 20.5292C110.728 20.7429 110.626 20.9315 110.422 21.0823C110.013 21.4092 109.502 21.6606 108.889 21.8618C108.302 22.0629 107.715 22.1635 107.166 22.1635Z" fill="#3D9266"/>
<path d="M107.165 22.3018C106.144 22.3018 105.225 22.088 104.433 21.648C103.641 21.2206 103.003 20.6172 102.556 19.8503C102.109 19.096 101.879 18.2035 101.879 17.2229C101.879 16.2298 102.096 15.3372 102.518 14.5829C102.939 13.8286 103.539 13.2126 104.293 12.7852C105.046 12.3578 105.927 12.1315 106.897 12.1315C107.855 12.1315 108.698 12.3452 109.4 12.7726C110.089 13.2 110.638 13.7783 110.996 14.52C111.354 15.2492 111.545 16.1166 111.545 17.0595C111.545 17.3235 111.456 17.5372 111.264 17.7132C111.085 17.8892 110.856 17.9772 110.575 17.9772H103.846C103.922 18.304 104.037 18.6183 104.203 18.9075C104.497 19.3978 104.893 19.7875 105.403 20.0766C105.914 20.3658 106.502 20.504 107.165 20.504C107.523 20.504 107.893 20.4412 108.276 20.3029C108.659 20.1772 108.966 20.0138 109.196 19.8503C109.4 19.6995 109.617 19.624 109.86 19.624C110.102 19.6115 110.319 19.6869 110.498 19.8378C110.728 20.0389 110.856 20.2652 110.868 20.5166C110.881 20.7806 110.766 20.9943 110.524 21.1829C110.102 21.5098 109.579 21.7863 108.953 21.9875C108.327 22.1886 107.727 22.3018 107.165 22.3018ZM106.885 12.408C105.965 12.408 105.135 12.6092 104.42 13.024C103.705 13.4263 103.143 14.0046 102.748 14.7212C102.339 15.4378 102.135 16.28 102.135 17.2355C102.135 18.1658 102.352 19.008 102.773 19.7246C103.195 20.4412 103.795 21.0195 104.548 21.4218C105.301 21.8366 106.182 22.0378 107.153 22.0378C107.689 22.0378 108.264 21.9372 108.851 21.736C109.438 21.5349 109.949 21.2835 110.345 20.9692C110.511 20.8435 110.587 20.6926 110.587 20.5292C110.575 20.3532 110.485 20.1898 110.307 20.0389C110.179 19.9258 110.026 19.8755 109.847 19.888C109.655 19.888 109.489 19.9509 109.336 20.064C109.081 20.2526 108.749 20.416 108.353 20.5543C107.944 20.6926 107.549 20.768 107.153 20.768C106.438 20.768 105.812 20.6172 105.263 20.3029C104.714 20.0012 104.28 19.5738 103.961 19.0458C103.769 18.7189 103.641 18.3669 103.565 17.9898H103.131V16.2926H103.59C103.654 15.9783 103.756 15.6892 103.884 15.4126C104.152 14.872 104.535 14.4446 105.046 14.1303C105.557 13.816 106.17 13.6652 106.885 13.6652C107.51 13.6652 108.059 13.816 108.493 14.0926C108.94 14.3818 109.285 14.7715 109.515 15.2618C109.668 15.576 109.77 15.9155 109.834 16.28H110.932L109.63 17.16V16.9212C109.63 16.7955 109.617 16.6698 109.604 16.5566H103.807C103.769 16.7703 103.756 16.9966 103.756 17.2229C103.756 17.3863 103.769 17.5498 103.782 17.7132H110.549C110.753 17.7132 110.919 17.6503 111.047 17.5246C111.175 17.3989 111.239 17.248 111.239 17.0595C111.239 16.1418 111.06 15.3246 110.715 14.6332C110.37 13.9418 109.872 13.3886 109.221 12.9989C108.596 12.5966 107.804 12.408 106.885 12.408ZM103.399 17.7132H103.527C103.501 17.5498 103.501 17.3863 103.501 17.2229C103.501 16.9966 103.514 16.7703 103.552 16.5566H103.412V17.7132H103.399ZM109.885 16.5566C109.885 16.5943 109.898 16.632 109.898 16.6823L110.077 16.5566H109.885ZM103.871 16.2926H109.579C109.528 15.9658 109.426 15.664 109.285 15.3875C109.068 14.9475 108.749 14.5829 108.353 14.3315C107.957 14.08 107.459 13.9418 106.885 13.9418C106.221 13.9418 105.659 14.08 105.186 14.3692C104.727 14.6458 104.369 15.048 104.127 15.5383C104.012 15.7646 103.922 16.016 103.871 16.2926Z" fill="#3D9266"/>
<path d="M115.146 14.231C114.891 14.231 114.686 14.1555 114.533 14.0173C114.38 13.879 114.303 13.6904 114.303 13.4767C114.303 13.2378 114.38 13.0493 114.533 12.911C114.686 12.7727 114.891 12.6973 115.146 12.6973H119.334C119.589 12.6973 119.794 12.7727 119.947 12.911C120.1 13.0493 120.177 13.2378 120.177 13.4767C120.177 13.6904 120.1 13.8664 119.947 14.0173C119.794 14.1555 119.589 14.231 119.334 14.231H115.146ZM119.168 22.0881C118.568 22.0881 118.019 21.9373 117.534 21.6355C117.048 21.3338 116.665 20.919 116.397 20.391C116.116 19.863 115.976 19.2847 115.976 18.631V10.1201C115.976 9.85611 116.065 9.6424 116.231 9.47897C116.397 9.31554 116.614 9.22754 116.882 9.22754C117.151 9.22754 117.368 9.31554 117.534 9.47897C117.7 9.6424 117.789 9.85611 117.789 10.1201V18.631C117.789 19.1087 117.917 19.4984 118.185 19.8253C118.453 20.1521 118.772 20.303 119.168 20.303H119.781C119.998 20.303 120.177 20.391 120.33 20.5544C120.483 20.7178 120.56 20.9315 120.56 21.1955C120.56 21.4595 120.458 21.6733 120.266 21.8367C120.062 22.0001 119.806 22.0881 119.5 22.0881H119.168Z" fill="#3D9266"/>
<path d="M119.5 22.2264H119.168C118.542 22.2264 117.968 22.0629 117.47 21.7487C116.972 21.4344 116.563 20.9944 116.282 20.4538C116.001 19.9132 115.848 19.2972 115.848 18.6309V14.3567H115.146C114.852 14.3567 114.622 14.2687 114.444 14.1052C114.265 13.9418 114.163 13.7281 114.163 13.4767C114.163 13.2001 114.252 12.9738 114.444 12.8104C114.622 12.6469 114.865 12.5589 115.146 12.5589H115.848V10.1201C115.848 9.81838 115.95 9.57953 116.142 9.37839C116.333 9.18982 116.589 9.08923 116.895 9.08923C117.201 9.08923 117.444 9.18982 117.636 9.37839C117.827 9.56696 117.929 9.81838 117.929 10.1201V12.5589H119.334C119.615 12.5589 119.857 12.6469 120.036 12.8104C120.215 12.9738 120.317 13.2001 120.317 13.4767C120.317 13.7281 120.228 13.9418 120.036 14.1052C119.857 14.2687 119.615 14.3567 119.334 14.3567H117.929V18.6309C117.929 19.0709 118.057 19.4481 118.3 19.7372C118.542 20.0264 118.823 20.1647 119.168 20.1647H119.781C120.036 20.1647 120.253 20.2652 120.432 20.4538C120.611 20.6424 120.687 20.8938 120.687 21.1829C120.687 21.4847 120.572 21.7361 120.343 21.9247C120.125 22.1258 119.845 22.2264 119.5 22.2264ZM116.116 14.3692V18.6435C116.116 19.2721 116.257 19.8504 116.512 20.3532C116.78 20.8561 117.15 21.2584 117.61 21.5475C118.07 21.8367 118.593 21.9749 119.168 21.9749H119.5C119.781 21.9749 120.011 21.8995 120.177 21.7612C120.343 21.6229 120.432 21.4469 120.432 21.2207C120.432 20.9944 120.368 20.8058 120.24 20.6675C120.113 20.5292 119.972 20.4664 119.793 20.4664H119.181C118.759 20.4664 118.389 20.2904 118.095 19.9384C117.814 19.5989 117.661 19.1589 117.661 18.6561V14.3818H116.116V14.3692ZM117.929 14.0927H119.334C119.551 14.0927 119.73 14.0298 119.857 13.9167C119.985 13.8035 120.049 13.6527 120.049 13.4767C120.049 13.2755 119.985 13.1247 119.857 12.9989C119.73 12.8732 119.551 12.8229 119.334 12.8229H117.929V14.0927ZM116.116 14.0927H117.661V12.8229H116.116V14.0927ZM115.146 12.8355C114.929 12.8355 114.75 12.8984 114.622 13.0115C114.495 13.1247 114.431 13.2881 114.431 13.4892C114.431 13.6652 114.495 13.8035 114.622 13.9292C114.75 14.0549 114.929 14.1052 115.146 14.1052H115.848V12.8355H115.146ZM116.116 12.5589H117.661V10.1201C117.661 9.8938 117.597 9.71782 117.444 9.56696C117.304 9.42867 117.112 9.35323 116.882 9.35323C116.652 9.35323 116.474 9.4161 116.32 9.56696C116.18 9.70525 116.103 9.8938 116.103 10.1201V12.5589H116.116Z" fill="#3D9266"/>
<path d="M128.77 22.1635C127.889 22.1635 127.097 21.9498 126.395 21.5098C125.693 21.0698 125.144 20.4915 124.735 19.7498C124.326 19.008 124.122 18.1658 124.122 17.2229C124.122 16.28 124.339 15.4378 124.786 14.696C125.233 13.9418 125.82 13.3509 126.574 12.9235C127.327 12.4835 128.182 12.2698 129.115 12.2698C130.047 12.2698 130.902 12.4835 131.655 12.9235C132.409 13.3635 132.996 13.9543 133.443 14.696C133.89 15.4503 134.107 16.2926 134.107 17.2229H133.405C133.405 18.1658 133.2 19.008 132.792 19.7498C132.383 20.4915 131.834 21.0823 131.132 21.5098C130.442 21.9498 129.651 22.1635 128.77 22.1635ZM129.127 20.5543C129.74 20.5543 130.289 20.4035 130.774 20.1143C131.26 19.8252 131.643 19.4229 131.911 18.92C132.192 18.4172 132.332 17.8515 132.332 17.2229C132.332 16.5818 132.192 16.0035 131.911 15.5006C131.63 14.9978 131.247 14.5955 130.774 14.3063C130.289 14.0172 129.74 13.8663 129.127 13.8663C128.527 13.8663 127.978 14.0172 127.493 14.3063C127.008 14.5955 126.612 14.9978 126.331 15.5006C126.05 16.0035 125.91 16.5818 125.91 17.2229C125.91 17.8515 126.05 18.4172 126.331 18.92C126.612 19.4229 126.995 19.8252 127.493 20.1143C127.991 20.4035 128.527 20.5543 129.127 20.5543ZM133.188 22.1132C132.92 22.1132 132.702 22.0252 132.524 21.8492C132.345 21.6732 132.256 21.4595 132.256 21.1955V18.48L132.6 16.5943L134.107 17.2355V21.208C134.107 21.472 134.018 21.6858 133.839 21.8618C133.673 22.0252 133.443 22.1132 133.188 22.1132Z" fill="#3D9266"/>
<path d="M128.769 22.3017C127.863 22.3017 127.046 22.0755 126.331 21.6355C125.616 21.1955 125.041 20.5795 124.632 19.8252C124.224 19.0709 124.007 18.1909 124.007 17.2355C124.007 16.28 124.237 15.4 124.684 14.6332C125.13 13.8663 125.756 13.2503 126.522 12.8103C127.288 12.3703 128.169 12.144 129.14 12.144C130.097 12.144 130.978 12.3703 131.745 12.8103C132.511 13.2503 133.123 13.8663 133.57 14.6332C134.005 15.3749 134.234 16.2172 134.247 17.1475V21.208C134.247 21.5097 134.145 21.7612 133.941 21.9497C133.736 22.1509 133.481 22.2515 133.187 22.2515C132.881 22.2515 132.626 22.1509 132.434 21.9497C132.23 21.7486 132.128 21.4972 132.128 21.208V20.8937C131.859 21.1703 131.553 21.4217 131.208 21.6355C130.493 22.0755 129.663 22.3017 128.769 22.3017ZM129.127 12.408C128.208 12.408 127.378 12.6217 126.65 13.0366C125.922 13.4515 125.335 14.0423 124.901 14.7589C124.479 15.488 124.262 16.3177 124.262 17.2229C124.262 18.1406 124.466 18.9577 124.85 19.6869C125.245 20.4035 125.782 20.9817 126.458 21.3966C127.135 21.8115 127.901 22.0252 128.757 22.0252C129.612 22.0252 130.378 21.8115 131.055 21.3966C131.451 21.1452 131.808 20.8435 132.115 20.4915V18.8195C132.089 18.8823 132.051 18.9326 132.025 18.9955C131.732 19.5235 131.336 19.9383 130.838 20.24C130.34 20.5417 129.753 20.6926 129.114 20.6926C128.489 20.6926 127.914 20.5417 127.403 20.24C126.892 19.9383 126.484 19.5235 126.19 18.9955C125.897 18.4675 125.743 17.8766 125.743 17.2229C125.743 16.5566 125.897 15.9657 126.19 15.4377C126.484 14.9097 126.892 14.4949 127.403 14.1932C127.914 13.8915 128.489 13.7406 129.114 13.7406C129.753 13.7406 130.327 13.8915 130.838 14.1932C131.336 14.4949 131.745 14.9097 132.025 15.4377C132.242 15.8275 132.37 16.2675 132.434 16.7326L132.498 16.3932L133.966 17.0217C133.941 16.192 133.724 15.4252 133.328 14.7589C132.906 14.0297 132.319 13.4515 131.591 13.0366C130.863 12.6092 130.034 12.408 129.127 12.408ZM132.396 20.592V21.208C132.396 21.4343 132.472 21.6229 132.613 21.7612C132.766 21.912 132.945 21.9749 133.175 21.9749C133.404 21.9749 133.596 21.8995 133.736 21.7612C133.89 21.6103 133.953 21.4343 133.953 21.208V17.3612H133.519C133.507 18.2663 133.289 19.0835 132.894 19.8126C132.766 20.0892 132.587 20.3532 132.396 20.592ZM129.127 14.0046C128.552 14.0046 128.029 14.1429 127.556 14.4195C127.084 14.696 126.714 15.0857 126.446 15.5635C126.177 16.0412 126.037 16.6069 126.037 17.2229C126.037 17.8263 126.177 18.3795 126.446 18.8572C126.714 19.3349 127.084 19.7246 127.556 20.0012C128.016 20.2777 128.552 20.416 129.127 20.416C129.714 20.416 130.251 20.2777 130.71 20.0012C131.17 19.7246 131.54 19.3349 131.808 18.8572C132.076 18.3795 132.204 17.8263 132.204 17.2229C132.204 16.6069 132.064 16.0537 131.808 15.5635C131.54 15.0857 131.17 14.696 130.71 14.4195C130.251 14.1429 129.714 14.0046 129.127 14.0046ZM132.702 16.7703L132.383 18.4926V20.1395C132.485 19.9886 132.574 19.8377 132.664 19.6869C133.06 18.9703 133.251 18.1406 133.251 17.2229V17.0972H133.443L132.702 16.7703Z" fill="#3D9266"/>
<path d="M146.914 22.0881C146.645 22.0881 146.428 22.0001 146.25 21.8241C146.071 21.6481 145.981 21.4218 145.981 21.1704V9.1018C145.981 8.82522 146.071 8.61151 146.25 8.43551C146.428 8.25951 146.658 8.17151 146.914 8.17151C147.194 8.17151 147.412 8.25951 147.59 8.43551C147.769 8.61151 147.858 8.82522 147.858 9.1018V14.2184H156.26V9.1018C156.26 8.82522 156.349 8.61151 156.528 8.43551C156.707 8.25951 156.937 8.17151 157.192 8.17151C157.473 8.17151 157.69 8.25951 157.856 8.43551C158.022 8.61151 158.111 8.82522 158.111 9.1018V21.1704C158.111 21.4344 158.022 21.6481 157.856 21.8241C157.69 22.0001 157.46 22.0881 157.192 22.0881C156.924 22.0881 156.707 22.0001 156.528 21.8241C156.349 21.6481 156.26 21.4218 156.26 21.1704V15.8527H147.858V21.1704C147.858 21.4344 147.769 21.6481 147.59 21.8241C147.412 22.0001 147.182 22.0881 146.914 22.0881Z" fill="#3D9266"/>
<path d="M157.192 22.2264C156.886 22.2264 156.631 22.1258 156.426 21.9246C156.222 21.7235 156.12 21.4721 156.12 21.1704V15.9909H147.986V21.1704C147.986 21.4721 147.884 21.7235 147.68 21.9246C147.476 22.1258 147.22 22.2264 146.901 22.2264C146.595 22.2264 146.339 22.1258 146.135 21.9246C145.931 21.7235 145.829 21.4721 145.829 21.1704V9.10178C145.829 8.78749 145.931 8.53606 146.148 8.33492C146.352 8.13377 146.607 8.0332 146.914 8.0332C147.233 8.0332 147.489 8.13377 147.693 8.33492C147.897 8.53606 147.999 8.78749 147.999 9.10178V14.0801H156.133V9.10178C156.133 8.78749 156.235 8.53606 156.439 8.33492C156.643 8.13377 156.899 8.0332 157.205 8.0332C157.524 8.0332 157.78 8.13377 157.971 8.33492C158.163 8.53606 158.265 8.78749 158.265 9.10178V21.1704C158.265 21.4595 158.163 21.7235 157.971 21.9246C157.767 22.1258 157.512 22.2264 157.192 22.2264ZM147.718 15.7144H156.388V21.1578C156.388 21.3841 156.465 21.5726 156.618 21.7235C156.771 21.8744 156.963 21.9498 157.192 21.9498C157.435 21.9498 157.614 21.8744 157.767 21.7235C157.908 21.5726 157.984 21.3841 157.984 21.1578V9.0892C157.984 8.85035 157.908 8.66177 157.767 8.51092C157.627 8.36006 157.435 8.2972 157.192 8.2972C156.963 8.2972 156.771 8.37263 156.618 8.52349C156.465 8.67435 156.388 8.86292 156.388 9.10178V14.3566H147.718V9.10178C147.718 8.86292 147.642 8.67435 147.501 8.52349C147.348 8.37263 147.157 8.30977 146.914 8.30977C146.684 8.30977 146.493 8.3852 146.339 8.53606C146.186 8.68692 146.11 8.87549 146.11 9.11435V21.1829C146.11 21.4092 146.186 21.5978 146.339 21.7486C146.493 21.8995 146.684 21.9749 146.914 21.9749C147.157 21.9749 147.348 21.8995 147.501 21.7486C147.654 21.5978 147.731 21.4092 147.731 21.1829V15.7144H147.718Z" fill="#3D9266"/>
<path d="M167.535 22.1885C166.705 22.1885 165.951 22.0125 165.3 21.6605C164.636 21.3085 164.126 20.7931 163.743 20.1142C163.359 19.4354 163.168 18.6057 163.168 17.6125V13.2251C163.168 12.9611 163.257 12.7474 163.436 12.5714C163.615 12.3954 163.832 12.3074 164.1 12.3074C164.368 12.3074 164.585 12.3954 164.764 12.5714C164.943 12.7474 165.032 12.9611 165.032 13.2251V17.6125C165.032 18.2788 165.16 18.832 165.415 19.2594C165.671 19.6994 166.015 20.0137 166.449 20.2274C166.884 20.4411 167.369 20.5417 167.918 20.5417C168.441 20.5417 168.901 20.4411 169.297 20.24C169.705 20.0388 170.025 19.7622 170.267 19.4228C170.51 19.0834 170.625 18.6937 170.625 18.2662H171.761C171.761 19.008 171.582 19.6742 171.212 20.2651C170.842 20.856 170.344 21.3337 169.705 21.6731C169.067 22.0125 168.339 22.1885 167.535 22.1885ZM171.531 22.088C171.263 22.088 171.046 22 170.867 21.824C170.689 21.648 170.599 21.4342 170.599 21.1702V13.2125C170.599 12.9359 170.689 12.7222 170.867 12.5588C171.046 12.3954 171.263 12.3074 171.531 12.3074C171.812 12.3074 172.029 12.3954 172.195 12.5588C172.361 12.7222 172.451 12.9485 172.451 13.2125V21.1702C172.451 21.4342 172.361 21.648 172.195 21.824C172.042 22.0125 171.812 22.088 171.531 22.088Z" fill="#3D9266"/>
<path d="M167.535 22.3143C166.68 22.3143 165.913 22.1258 165.237 21.7738C164.56 21.4092 164.011 20.8812 163.628 20.1772C163.232 19.4858 163.041 18.6183 163.041 17.6126V13.2252C163.041 12.9235 163.143 12.672 163.347 12.4835C163.551 12.2823 163.807 12.1818 164.1 12.1818C164.407 12.1818 164.662 12.2823 164.854 12.4835C165.058 12.6846 165.16 12.936 165.16 13.2252V17.6126C165.16 18.2538 165.288 18.7818 165.518 19.1966C165.76 19.5989 166.079 19.9132 166.488 20.1018C166.897 20.3029 167.369 20.4035 167.893 20.4035C168.39 20.4035 168.837 20.3029 169.22 20.1143C169.603 19.9258 169.91 19.6618 170.14 19.3349C170.37 19.008 170.484 18.6435 170.484 18.2538V13.2252C170.484 12.9109 170.587 12.6595 170.791 12.4709C170.995 12.2823 171.251 12.1818 171.544 12.1818C171.863 12.1818 172.119 12.2823 172.31 12.4709C172.502 12.6595 172.604 12.9109 172.604 13.2252V21.1829C172.604 21.4846 172.502 21.7235 172.31 21.9246C172.119 22.1258 171.863 22.2263 171.544 22.2263C171.238 22.2263 170.982 22.1258 170.791 21.9246C170.612 21.7486 170.51 21.5349 170.497 21.2835C170.28 21.472 170.038 21.6355 169.782 21.7738C169.118 22.1383 168.365 22.3143 167.535 22.3143ZM164.1 12.4583C163.87 12.4583 163.679 12.5338 163.538 12.672C163.385 12.8229 163.321 12.9989 163.321 13.2252V17.6126C163.321 18.568 163.513 19.3852 163.87 20.0389C164.241 20.6926 164.739 21.1955 165.377 21.5223C166.016 21.8618 166.743 22.0378 167.548 22.0378C168.327 22.0378 169.042 21.8743 169.642 21.5349C169.961 21.3589 170.242 21.1578 170.484 20.9189V19.2846C170.446 19.3475 170.408 19.4103 170.37 19.4732C170.114 19.8378 169.769 20.1269 169.348 20.3406C168.927 20.5543 168.442 20.6549 167.905 20.6549C167.343 20.6549 166.833 20.5418 166.386 20.328C165.926 20.1143 165.556 19.7623 165.301 19.3098C165.032 18.8572 164.905 18.2789 164.905 17.6V13.2126C164.905 12.9863 164.828 12.7978 164.688 12.6595C164.509 12.5212 164.33 12.4583 164.1 12.4583ZM170.753 21.0446V21.1829C170.753 21.4092 170.829 21.5978 170.97 21.736C171.123 21.8869 171.302 21.9498 171.531 21.9498C171.774 21.9498 171.966 21.8743 172.106 21.736C172.247 21.5852 172.323 21.4092 172.323 21.1829V13.2252C172.323 12.9863 172.259 12.7978 172.106 12.6595C171.966 12.5212 171.774 12.4458 171.531 12.4458C171.302 12.4458 171.11 12.5212 170.97 12.6595C170.816 12.7978 170.753 12.9863 170.753 13.2252V18.1155H171.889V18.2538C171.889 19.008 171.697 19.712 171.314 20.3155C171.148 20.592 170.97 20.8309 170.753 21.0446ZM170.753 18.392V20.6549C170.88 20.504 170.995 20.3532 171.097 20.1898C171.429 19.6492 171.608 19.0458 171.634 18.392H170.753Z" fill="#3D9266"/>
<path d="M182.18 22.1635C181.184 22.1635 180.29 21.9498 179.511 21.5349C178.732 21.1075 178.12 20.5292 177.685 19.7875C177.239 19.0458 177.021 18.1909 177.021 17.2229C177.021 16.2423 177.226 15.3875 177.647 14.6458C178.068 13.9041 178.643 13.3258 179.371 12.8983C180.111 12.4709 180.954 12.2698 181.912 12.2698C182.857 12.2698 183.661 12.4709 184.338 12.8858C185.014 13.3006 185.525 13.8663 185.883 14.5829C186.24 15.2995 186.419 16.1292 186.419 17.0721C186.419 17.2983 186.342 17.4869 186.189 17.6378C186.036 17.7886 185.832 17.8641 185.589 17.8641H178.286V16.4435H185.525L184.785 16.9463C184.772 16.3555 184.657 15.8149 184.427 15.3498C184.197 14.8846 183.878 14.5075 183.444 14.2309C183.023 13.9543 182.512 13.8161 181.899 13.8161C181.21 13.8161 180.622 13.9669 180.137 14.2561C179.652 14.5578 179.281 14.9601 179.026 15.4755C178.771 15.9909 178.643 16.5818 178.643 17.2355C178.643 17.8892 178.796 18.4675 179.09 18.9829C179.396 19.4983 179.805 19.9006 180.341 20.1898C180.878 20.4915 181.478 20.6298 182.167 20.6298C182.537 20.6298 182.92 20.5669 183.316 20.4286C183.712 20.2903 184.031 20.1395 184.261 19.9509C184.44 19.8252 184.644 19.7498 184.849 19.7498C185.066 19.7498 185.244 19.8126 185.398 19.9383C185.602 20.1143 185.717 20.3155 185.73 20.5292C185.742 20.7429 185.64 20.9315 185.436 21.0823C185.027 21.4092 184.517 21.6606 183.904 21.8618C183.316 22.0629 182.742 22.1635 182.18 22.1635Z" fill="#3D9266"/>
<path d="M182.18 22.3018C181.159 22.3018 180.239 22.088 179.448 21.648C178.656 21.2206 178.018 20.6172 177.571 19.8503C177.124 19.096 176.894 18.2035 176.894 17.2229C176.894 16.2298 177.111 15.3372 177.532 14.5829C177.954 13.8286 178.554 13.2126 179.307 12.7852C180.061 12.3578 180.942 12.1315 181.912 12.1315C182.87 12.1315 183.712 12.3452 184.415 12.7726C185.104 13.2 185.653 13.7783 186.011 14.52C186.368 15.2492 186.56 16.1166 186.56 17.0595C186.56 17.3235 186.47 17.5372 186.279 17.7132C186.1 17.8892 185.87 17.9772 185.589 17.9772H178.86C178.937 18.304 179.052 18.6183 179.218 18.9075C179.512 19.3978 179.907 19.7875 180.418 20.0766C180.929 20.3658 181.516 20.504 182.18 20.504C182.538 20.504 182.908 20.4412 183.291 20.3029C183.674 20.1772 183.981 20.0138 184.21 19.8503C184.415 19.6995 184.632 19.624 184.874 19.624C185.117 19.624 185.334 19.6869 185.513 19.8378C185.743 20.0389 185.87 20.2652 185.883 20.5166C185.896 20.7806 185.781 20.9943 185.538 21.1829C185.117 21.5098 184.593 21.7863 183.968 21.9875C183.355 22.1886 182.755 22.3018 182.18 22.3018ZM181.912 12.408C180.993 12.408 180.163 12.6092 179.448 13.024C178.733 13.4263 178.171 14.0046 177.775 14.7212C177.366 15.4378 177.162 16.28 177.162 17.2355C177.162 18.1658 177.379 19.008 177.801 19.7246C178.222 20.4412 178.822 21.0195 179.575 21.4218C180.329 21.8366 181.21 22.0378 182.18 22.0378C182.716 22.0378 183.291 21.9372 183.878 21.736C184.466 21.5349 184.976 21.2835 185.372 20.9692C185.538 20.8435 185.615 20.6926 185.615 20.5292C185.602 20.3532 185.513 20.1898 185.334 20.0389C185.206 19.9258 185.053 19.8755 184.874 19.888C184.696 19.888 184.517 19.9509 184.364 20.064C184.108 20.2526 183.776 20.416 183.38 20.5543C182.972 20.6926 182.576 20.768 182.18 20.768C181.465 20.768 180.839 20.6172 180.29 20.3029C179.741 20.0012 179.307 19.5738 178.988 19.0458C178.797 18.7189 178.669 18.3669 178.592 17.9898H178.158V16.2926H178.618C178.682 15.9783 178.784 15.6892 178.911 15.4126C179.18 14.872 179.563 14.4446 180.073 14.1303C180.584 13.816 181.197 13.6652 181.912 13.6652C182.538 13.6652 183.087 13.816 183.521 14.0926C183.968 14.3818 184.313 14.7715 184.542 15.2618C184.696 15.576 184.798 15.9155 184.862 16.28H185.96L184.657 17.16V16.9212C184.657 16.7955 184.644 16.6698 184.632 16.5566H178.835C178.797 16.7703 178.784 16.9966 178.784 17.2229C178.784 17.3863 178.797 17.5498 178.809 17.7132H185.577C185.781 17.7132 185.947 17.6503 186.087 17.5246C186.215 17.3989 186.279 17.248 186.279 17.0595C186.279 16.1418 186.1 15.3246 185.755 14.6332C185.411 13.9418 184.913 13.3886 184.261 12.9989C183.623 12.5966 182.819 12.408 181.912 12.408ZM178.426 17.7132H178.554C178.528 17.5498 178.528 17.3863 178.528 17.2229C178.528 16.9966 178.541 16.7703 178.579 16.5566H178.439V17.7132H178.426ZM184.9 16.5566C184.9 16.5943 184.913 16.632 184.913 16.6823L185.091 16.5566H184.9ZM178.886 16.2926H184.593C184.542 15.9658 184.44 15.664 184.3 15.3875C184.083 14.9475 183.763 14.5829 183.368 14.3315C182.972 14.08 182.474 13.9418 181.899 13.9418C181.235 13.9418 180.674 14.08 180.201 14.3692C179.741 14.6458 179.384 15.048 179.141 15.5383C179.039 15.7646 178.95 16.016 178.886 16.2926Z" fill="#3D9266"/>
<path d="M191.489 22.0881C191.195 22.0881 190.978 22.0126 190.825 21.8618C190.671 21.7109 190.595 21.4846 190.595 21.1955V13.2252C190.595 12.9361 190.671 12.7223 190.825 12.5715C190.978 12.4206 191.208 12.3452 191.489 12.3452C191.795 12.3452 192.012 12.4206 192.165 12.5715C192.318 12.7223 192.395 12.9486 192.395 13.2378V21.2081C192.395 21.4972 192.318 21.7109 192.165 21.8618C192.025 22.0126 191.795 22.0881 191.489 22.0881ZM191.476 15.9909C191.476 15.2743 191.655 14.6332 192.012 14.0801C192.37 13.5143 192.842 13.0618 193.455 12.7349C194.055 12.4081 194.719 12.2321 195.447 12.2321C196.175 12.2321 196.711 12.3452 197.068 12.5841C197.426 12.8103 197.566 13.0869 197.477 13.4138C197.439 13.5772 197.375 13.7029 197.273 13.7909C197.17 13.8789 197.056 13.9418 196.915 13.9543C196.787 13.9795 196.634 13.9669 196.481 13.9418C195.702 13.7909 195.013 13.7783 194.4 13.9041C193.787 14.0298 193.302 14.2812 192.944 14.6332C192.587 14.9852 192.408 15.4378 192.408 15.9909H191.476Z" fill="#3D9266"/>
<path d="M191.488 22.2263C191.169 22.2263 190.901 22.1383 190.722 21.9623C190.544 21.7863 190.441 21.5349 190.441 21.1955V13.2252C190.441 12.9109 190.531 12.6469 190.722 12.4709C190.901 12.2949 191.156 12.1943 191.488 12.1943C191.82 12.1943 192.089 12.2823 192.267 12.4583C192.446 12.6343 192.535 12.8857 192.535 13.2252C192.791 12.9863 193.072 12.7852 193.391 12.6092C194.017 12.2697 194.706 12.0938 195.447 12.0938C196.2 12.0938 196.762 12.2195 197.145 12.4583C197.656 12.7852 197.681 13.1749 197.605 13.4263C197.566 13.6149 197.477 13.7657 197.349 13.8789C197.221 13.9795 197.081 14.0549 196.928 14.08C196.775 14.1052 196.609 14.1052 196.443 14.0549C195.689 13.904 195.013 13.8915 194.412 14.0172C193.825 14.1429 193.353 14.3817 193.021 14.7086C192.689 15.048 192.523 15.4503 192.523 15.9657V21.1703C192.523 21.4846 192.433 21.7486 192.255 21.9246C192.089 22.1383 191.833 22.2263 191.488 22.2263ZM191.488 12.4709C191.233 12.4709 191.042 12.5337 190.914 12.6595C190.786 12.7852 190.722 12.9737 190.722 13.2252V21.1955C190.722 21.4595 190.786 21.648 190.914 21.7737C191.042 21.8995 191.233 21.9623 191.488 21.9623C191.757 21.9623 191.948 21.8995 192.076 21.7737C192.203 21.648 192.267 21.4595 192.267 21.208V16.1292H191.348V15.9909C191.348 15.2617 191.539 14.5829 191.897 14.0046C192.012 13.8286 192.127 13.6652 192.267 13.5143V13.2377C192.267 12.9737 192.203 12.7852 192.076 12.6595C191.948 12.5337 191.757 12.4709 191.488 12.4709ZM191.616 15.8652H192.267V13.9417C192.216 14.0046 192.178 14.08 192.127 14.1429C191.808 14.6583 191.629 15.2366 191.616 15.8652ZM192.535 13.6149V14.9349C192.612 14.7966 192.714 14.6583 192.842 14.5452C193.212 14.168 193.723 13.9166 194.361 13.7783C194.987 13.64 195.715 13.6526 196.494 13.816C196.634 13.8537 196.762 13.8537 196.877 13.8286C196.992 13.8035 197.081 13.7657 197.17 13.6903C197.247 13.6149 197.311 13.5143 197.336 13.376C197.387 13.2 197.387 12.9486 196.992 12.6846C196.66 12.4709 196.136 12.3577 195.447 12.3577C194.744 12.3577 194.106 12.5212 193.519 12.8355C193.136 13.0617 192.816 13.3132 192.535 13.6149Z" fill="#3D9266"/>
<path d="M200.784 14.231C200.528 14.231 200.324 14.1555 200.171 14.0173C200.018 13.879 199.941 13.6904 199.941 13.4767C199.941 13.2378 200.018 13.0493 200.171 12.911C200.324 12.7727 200.528 12.6973 200.784 12.6973H204.972C205.227 12.6973 205.431 12.7727 205.585 12.911C205.738 13.0493 205.814 13.2378 205.814 13.4767C205.814 13.6904 205.738 13.8664 205.585 14.0173C205.431 14.1555 205.227 14.231 204.972 14.231H200.784ZM204.806 22.0881C204.206 22.0881 203.657 21.9373 203.171 21.6355C202.686 21.3338 202.303 20.919 202.035 20.391C201.754 19.863 201.614 19.2847 201.614 18.631V10.1201C201.614 9.85611 201.703 9.6424 201.869 9.47897C202.035 9.31554 202.252 9.22754 202.52 9.22754C202.788 9.22754 203.005 9.31554 203.171 9.47897C203.337 9.6424 203.427 9.85611 203.427 10.1201V18.631C203.427 19.1087 203.554 19.4984 203.823 19.8253C204.091 20.1521 204.41 20.303 204.806 20.303H205.419C205.636 20.303 205.814 20.391 205.968 20.5544C206.121 20.7178 206.197 20.9315 206.197 21.1955C206.197 21.4595 206.095 21.6733 205.904 21.8367C205.699 22.0001 205.444 22.0881 205.138 22.0881H204.806Z" fill="#3D9266"/>
<path d="M205.125 22.2264H204.793C204.167 22.2264 203.593 22.0629 203.095 21.7487C202.597 21.4344 202.188 20.9944 201.907 20.4538C201.626 19.9132 201.473 19.2972 201.473 18.6309V14.3567H200.771C200.477 14.3567 200.247 14.2687 200.069 14.1052C199.89 13.9418 199.788 13.7281 199.788 13.4767C199.788 13.2001 199.877 12.9738 200.069 12.8104C200.247 12.6469 200.49 12.5589 200.771 12.5589H201.473V10.1201C201.473 9.81838 201.575 9.57953 201.767 9.37839C201.958 9.18982 202.214 9.08923 202.52 9.08923C202.826 9.08923 203.069 9.18982 203.273 9.37839C203.465 9.56696 203.567 9.81838 203.567 10.1201V12.5589H204.972C205.252 12.5589 205.495 12.6469 205.674 12.8104C205.865 12.9738 205.955 13.2001 205.955 13.4767C205.955 13.7281 205.865 13.9418 205.674 14.1052C205.495 14.2687 205.252 14.3567 204.972 14.3567H203.567V18.6309C203.567 19.0709 203.695 19.4481 203.937 19.7372C204.18 20.0264 204.461 20.1647 204.806 20.1647H205.418C205.674 20.1647 205.891 20.2652 206.07 20.4538C206.248 20.6424 206.325 20.8938 206.325 21.1829C206.325 21.4847 206.21 21.7361 205.98 21.9247C205.763 22.1258 205.47 22.2264 205.125 22.2264ZM201.754 14.3692V18.6435C201.754 19.2721 201.894 19.8504 202.15 20.3532C202.418 20.8561 202.788 21.2584 203.248 21.5475C203.708 21.8367 204.231 21.9749 204.806 21.9749H205.138C205.418 21.9749 205.648 21.8995 205.814 21.7612C205.98 21.6229 206.07 21.4469 206.07 21.2207C206.07 20.9944 206.006 20.8058 205.878 20.6675C205.75 20.5292 205.61 20.4664 205.431 20.4664H204.818C204.397 20.4664 204.027 20.2904 203.733 19.9384C203.452 19.5989 203.299 19.1589 203.299 18.6561V14.3818H201.754V14.3692ZM203.554 14.0927H204.959C205.176 14.0927 205.355 14.0298 205.482 13.9167C205.61 13.8035 205.674 13.6527 205.674 13.4767C205.674 13.2755 205.61 13.1247 205.482 12.9989C205.355 12.8732 205.176 12.8229 204.959 12.8229H203.554V14.0927ZM201.754 14.0927H203.299V12.8229H201.754V14.0927ZM200.784 12.8355C200.566 12.8355 200.388 12.8984 200.26 13.0115C200.132 13.1247 200.069 13.2881 200.069 13.4892C200.069 13.6652 200.132 13.8035 200.26 13.9292C200.388 14.0549 200.566 14.1052 200.784 14.1052H201.486V12.8355H200.784ZM201.754 12.5589H203.299V10.1201C203.299 9.8938 203.235 9.71782 203.082 9.56696C202.941 9.42867 202.75 9.35323 202.52 9.35323C202.29 9.35323 202.111 9.4161 201.958 9.56696C201.818 9.70525 201.741 9.8938 201.741 10.1201V12.5589H201.754Z" fill="#3D9266"/>
<path d="M214.765 22.1635C213.782 22.1635 212.927 21.9498 212.173 21.5349C211.42 21.1075 210.833 20.5292 210.411 19.7875C209.977 19.0458 209.773 18.1909 209.773 17.2229C209.773 16.2423 209.99 15.3875 210.411 14.6458C210.845 13.9041 211.433 13.3258 212.173 12.8983C212.927 12.4709 213.782 12.2698 214.765 12.2698C215.736 12.2698 216.591 12.4835 217.332 12.8983C218.085 13.3258 218.673 13.9041 219.094 14.6458C219.528 15.3875 219.732 16.2423 219.732 17.2229C219.732 18.1909 219.515 19.0332 219.094 19.7875C218.673 20.5292 218.085 21.1075 217.332 21.5349C216.604 21.9498 215.736 22.1635 214.765 22.1635ZM214.765 20.5543C215.391 20.5543 215.953 20.4161 216.425 20.1269C216.91 19.8378 217.281 19.4481 217.562 18.9452C217.83 18.4423 217.97 17.8641 217.97 17.2103C217.97 16.5566 217.83 15.9783 217.562 15.4755C217.294 14.9726 216.91 14.5703 216.425 14.2938C215.94 14.0046 215.391 13.8663 214.765 13.8663C214.14 13.8663 213.578 14.0046 213.106 14.2938C212.633 14.5829 212.237 14.9726 211.969 15.4755C211.688 15.9783 211.548 16.5566 211.548 17.2103C211.548 17.8641 211.688 18.4423 211.969 18.9452C212.25 19.4481 212.633 19.8378 213.106 20.1269C213.578 20.4161 214.14 20.5543 214.765 20.5543Z" fill="#3D9266"/>
<path d="M214.765 22.3018C213.769 22.3018 212.876 22.088 212.109 21.648C211.343 21.2206 210.73 20.6172 210.296 19.8503C209.862 19.096 209.632 18.2035 209.632 17.2229C209.632 16.2298 209.849 15.3372 210.296 14.5829C210.73 13.8286 211.343 13.2126 212.109 12.7852C212.876 12.3578 213.769 12.1315 214.765 12.1315C215.748 12.1315 216.642 12.3452 217.408 12.7852C218.174 13.2126 218.787 13.816 219.221 14.5829C219.656 15.3372 219.885 16.2298 219.885 17.2229C219.885 18.2035 219.668 19.0835 219.234 19.8503C218.8 20.6172 218.187 21.2206 217.421 21.648C216.655 22.0755 215.761 22.3018 214.765 22.3018ZM214.765 12.408C213.82 12.408 212.965 12.6092 212.237 13.024C211.509 13.4263 210.935 14.0046 210.526 14.7212C210.118 15.4378 209.9 16.28 209.9 17.2355C209.9 18.1658 210.105 19.008 210.526 19.7246C210.935 20.4412 211.522 21.0195 212.237 21.4218C212.965 21.824 213.808 22.0378 214.765 22.0378C215.723 22.0378 216.566 21.8366 217.293 21.4218C218.021 21.0195 218.596 20.4412 219.004 19.7246C219.413 19.008 219.617 18.1658 219.617 17.2355C219.617 16.2926 219.413 15.4378 218.992 14.7212C218.583 14.0046 217.996 13.4263 217.281 13.024C216.54 12.6092 215.697 12.408 214.765 12.408ZM214.765 20.6926C214.114 20.6926 213.527 20.5418 213.029 20.24C212.531 19.9383 212.122 19.536 211.841 19.008C211.548 18.4926 211.407 17.8892 211.407 17.2103C211.407 16.5315 211.548 15.928 211.841 15.4126C212.135 14.8846 212.531 14.4698 213.029 14.1806C213.527 13.8789 214.114 13.728 214.765 13.728C215.416 13.728 216.004 13.8789 216.502 14.1806C217 14.4823 217.396 14.8972 217.689 15.4126C217.97 15.9406 218.111 16.544 218.111 17.2103C218.111 17.8892 217.97 18.48 217.689 19.008C217.408 19.5235 217.012 19.9383 216.515 20.24C215.991 20.5418 215.416 20.6926 214.765 20.6926ZM214.765 14.0046C214.165 14.0046 213.629 14.1429 213.169 14.4195C212.71 14.696 212.339 15.0732 212.084 15.5509C211.816 16.0286 211.688 16.5943 211.688 17.2229C211.688 17.8515 211.828 18.4172 212.084 18.8823C212.352 19.36 212.722 19.7372 213.182 20.0138C213.642 20.2903 214.178 20.4286 214.778 20.4286C215.378 20.4286 215.914 20.2903 216.374 20.0138C216.834 19.7372 217.191 19.36 217.459 18.8823C217.715 18.4046 217.855 17.8389 217.855 17.2103C217.855 16.5818 217.728 16.016 217.459 15.5383C217.204 15.0606 216.834 14.6709 216.374 14.4069C215.902 14.1429 215.365 14.0046 214.765 14.0046Z" fill="#3D9266"/>
<path d="M57.0752 35.9669C56.7049 35.9669 56.3602 35.904 56.0409 35.7657C55.7217 35.6274 55.4408 35.4389 55.1982 35.1874C54.9556 34.9486 54.7769 34.6594 54.6364 34.3326C54.496 34.0057 54.4321 33.6537 54.4321 33.264C54.4321 32.8869 54.496 32.5349 54.6364 32.208C54.7769 31.8812 54.9556 31.592 55.1982 31.3532C55.4408 31.1143 55.7217 30.9132 56.0409 30.7749C56.3602 30.6366 56.7049 30.5612 57.088 30.5612C57.4455 30.5612 57.7391 30.6114 57.9945 30.6994C58.2499 30.7874 58.5052 30.9383 58.7606 31.1394C58.7989 31.1646 58.8245 31.1897 58.85 31.2274C58.8755 31.2526 58.8883 31.2903 58.8883 31.3154C58.9011 31.3406 58.9011 31.3783 58.9011 31.416C58.9011 31.504 58.8755 31.5669 58.8117 31.6297C58.7478 31.68 58.6712 31.7177 58.5946 31.7177C58.5052 31.7303 58.4286 31.6926 58.3393 31.6297C58.1733 31.4914 57.9945 31.3783 57.8157 31.3029C57.637 31.2274 57.3944 31.1897 57.1007 31.1897C56.8326 31.1897 56.5772 31.24 56.3346 31.3532C56.092 31.4663 55.8877 31.6046 55.709 31.7932C55.5302 31.9817 55.3898 32.1954 55.2876 32.4469C55.1855 32.6983 55.1344 32.9623 55.1344 33.2514C55.1344 33.5406 55.1855 33.8046 55.2876 34.056C55.3898 34.3074 55.5302 34.5212 55.709 34.7097C55.8877 34.8983 56.092 35.0492 56.3346 35.1497C56.5772 35.2503 56.8198 35.3132 57.1007 35.3132C57.3306 35.3132 57.5604 35.2754 57.7647 35.2C57.969 35.1246 58.1733 35.0114 58.3648 34.8732C58.4414 34.8103 58.5308 34.7852 58.6074 34.7977C58.684 34.8103 58.7606 34.8354 58.8117 34.8983C58.8628 34.9486 58.8883 35.0366 58.8883 35.1372C58.8883 35.1874 58.8755 35.2252 58.8628 35.2629C58.85 35.3006 58.8117 35.3509 58.7861 35.376C58.5435 35.5646 58.2754 35.7154 57.9945 35.816C57.6753 35.9166 57.3816 35.9669 57.0752 35.9669Z" fill="#3D9266"/>
<path d="M57.0749 36.0927C56.6919 36.0927 56.3216 36.0173 55.9896 35.879C55.6577 35.7407 55.3512 35.527 55.1086 35.2755C54.8532 35.0241 54.6617 34.7224 54.5213 34.3704C54.3808 34.031 54.3042 33.6538 54.3042 33.2515C54.3042 32.8618 54.3808 32.4847 54.5213 32.1453C54.6617 31.8058 54.866 31.5041 55.1086 31.2527C55.364 31.0013 55.6577 30.7875 55.9896 30.6493C56.3216 30.4984 56.6919 30.423 57.0877 30.423C57.458 30.423 57.7772 30.4733 58.0454 30.5613C58.3135 30.6618 58.5816 30.8127 58.8498 31.0264C58.8881 31.0641 58.9264 31.1018 58.9647 31.1395C58.9902 31.1773 59.0157 31.2275 59.0285 31.2653C59.0413 31.303 59.0413 31.3533 59.0413 31.4035C59.0413 31.5293 58.9902 31.6298 58.9008 31.7178C58.8115 31.7933 58.7093 31.8435 58.5944 31.8435C58.4795 31.8561 58.3518 31.8184 58.2496 31.7304C58.0837 31.5921 57.9177 31.4915 57.7517 31.4161C57.5857 31.3533 57.3686 31.3155 57.0877 31.3155C56.8451 31.3155 56.6025 31.3658 56.3855 31.4664C56.1684 31.567 55.9641 31.7053 55.7981 31.8813C55.6321 32.0573 55.4917 32.2584 55.4023 32.4973C55.3129 32.7235 55.2618 32.9875 55.2618 33.2515C55.2618 33.5155 55.3129 33.7795 55.4023 34.0058C55.4917 34.2447 55.6321 34.4458 55.7981 34.6218C55.9641 34.7978 56.1684 34.9361 56.3855 35.0367C56.794 35.2127 57.292 35.2253 57.7006 35.0744C57.8921 34.999 58.0837 34.8984 58.2624 34.7601C58.3773 34.6847 58.4795 34.647 58.5944 34.6595C58.7093 34.6721 58.7987 34.7098 58.8881 34.7978C58.9647 34.8733 59.003 34.9864 59.003 35.1247C59.003 35.1875 58.9902 35.2504 58.9647 35.3133C58.9391 35.3761 58.9008 35.4264 58.8498 35.4767C58.5816 35.6904 58.3007 35.8413 58.007 35.9418C57.7134 36.0424 57.3942 36.0927 57.0749 36.0927ZM57.0749 30.687C56.7174 30.687 56.3855 30.7498 56.0918 30.8881C55.7853 31.0264 55.5172 31.2024 55.3001 31.4413C55.0703 31.6675 54.8915 31.9441 54.7639 32.2584C54.6362 32.5727 54.5723 32.8995 54.5723 33.2641C54.5723 33.6287 54.6362 33.9681 54.7639 34.2824C54.8915 34.5967 55.0703 34.8733 55.3001 35.0995C55.53 35.3258 55.7981 35.5144 56.1045 35.6401C56.6664 35.879 57.3431 35.9041 57.9304 35.6904C58.1986 35.6024 58.4539 35.4515 58.6838 35.2755C58.6965 35.263 58.7093 35.2378 58.7221 35.2127C58.7348 35.1875 58.7348 35.1624 58.7348 35.1373C58.7348 35.0744 58.7221 35.0241 58.6965 34.999C58.6582 34.9613 58.6327 34.9487 58.5816 34.9487C58.5305 34.9487 58.4795 34.9613 58.4284 34.999C58.2241 35.1498 58.0198 35.263 57.8028 35.3384C57.3176 35.5144 56.7557 35.5018 56.2833 35.3007C56.0279 35.1875 55.8109 35.0241 55.6193 34.823C55.4278 34.6218 55.2746 34.383 55.1725 34.119C55.0703 33.855 55.0065 33.5658 55.0065 33.2641C55.0065 32.9624 55.0575 32.6858 55.1725 32.4218C55.2746 32.1578 55.4278 31.919 55.6193 31.7178C55.8109 31.5167 56.0407 31.3533 56.2833 31.2401C56.5387 31.127 56.8068 31.0641 57.1005 31.0641C57.4197 31.0641 57.6751 31.1018 57.8666 31.1898C58.0581 31.2778 58.2496 31.391 58.4284 31.5418C58.4795 31.5795 58.5305 31.5921 58.5816 31.5921C58.6455 31.5921 58.6838 31.567 58.7221 31.5293C58.7604 31.5041 58.7731 31.4664 58.7731 31.4161C58.7731 31.391 58.7732 31.3658 58.7604 31.3407C58.7604 31.3281 58.7476 31.3155 58.7348 31.303C58.7221 31.2904 58.7093 31.2653 58.6838 31.2527C58.4412 31.0515 58.1986 30.9133 57.956 30.8253C57.7006 30.7373 57.4069 30.687 57.0749 30.687Z" fill="#3D9266"/>
<path d="M67.0343 36.0046C66.6001 36.0046 66.2043 35.9292 65.8723 35.7657C65.5404 35.6023 65.2722 35.3886 65.0807 35.0994C64.8892 34.8103 64.7998 34.496 64.7998 34.1314V30.976C64.7998 30.8755 64.8381 30.7875 64.9019 30.7246C64.9658 30.6617 65.0552 30.624 65.1573 30.624C65.2595 30.624 65.3488 30.6617 65.4127 30.7246C65.4765 30.7875 65.5148 30.8755 65.5148 30.976V34.1314C65.5148 34.3703 65.5787 34.584 65.7064 34.7726C65.834 34.9612 66.0128 35.0994 66.2426 35.2126C66.4725 35.3132 66.7406 35.376 67.0343 35.376C67.3279 35.376 67.5705 35.3257 67.8004 35.2126C68.0174 35.112 68.1962 34.9612 68.3239 34.7726C68.4515 34.584 68.5154 34.3703 68.5154 34.1314V30.976C68.5154 30.8755 68.5537 30.7875 68.6175 30.7246C68.6814 30.6617 68.7708 30.624 68.8729 30.624C68.9751 30.624 69.0644 30.6617 69.1283 30.7246C69.1921 30.7875 69.2304 30.8755 69.2304 30.976V34.1314C69.2304 34.496 69.141 34.8229 68.9495 35.0994C68.7708 35.3886 68.5026 35.6023 68.1834 35.7657C67.8387 35.9292 67.4556 36.0046 67.0343 36.0046Z" fill="#3D9266"/>
<path d="M67.0341 36.1303C66.5744 36.1303 66.1659 36.0423 65.8083 35.8789C65.4508 35.7155 65.1699 35.4766 64.9656 35.1623C64.7613 34.8606 64.6592 34.5086 64.6592 34.1189V30.9635C64.6592 30.8252 64.7103 30.6995 64.7996 30.6115C64.9912 30.4229 65.3231 30.4355 65.5019 30.6115C65.5913 30.6995 65.6423 30.8126 65.6423 30.9635V34.1189C65.6423 34.3326 65.6934 34.5212 65.8083 34.6846C65.9233 34.8481 66.0892 34.9863 66.2935 35.0743C66.5106 35.1749 66.7532 35.2252 67.0341 35.2252C67.3022 35.2252 67.5321 35.1749 67.7364 35.0743C67.9407 34.9738 68.0939 34.8481 68.2088 34.6846C68.3237 34.5212 68.3748 34.3326 68.3748 34.1189V30.9635C68.3748 30.8252 68.4259 30.7121 68.5152 30.6115C68.7068 30.4229 69.0387 30.4355 69.2175 30.6115C69.3069 30.6995 69.3452 30.8126 69.3452 30.9509V34.1063C69.3452 34.4961 69.243 34.8481 69.0515 35.1498C68.86 35.4515 68.5791 35.6903 68.2216 35.8663C67.8768 36.0549 67.481 36.1303 67.0341 36.1303ZM65.1444 30.7623C65.0805 30.7623 65.0295 30.7875 64.9784 30.8252C64.9401 30.8629 64.9145 30.9132 64.9145 30.9886V34.1441C64.9145 34.4835 65.0039 34.7852 65.1827 35.0366C65.3614 35.3006 65.604 35.5018 65.9233 35.6526C66.2425 35.8035 66.6128 35.8789 67.0341 35.8789C67.4299 35.8789 67.8002 35.8035 68.1067 35.6526C68.4131 35.5018 68.6557 35.3006 68.8217 35.0366C68.9877 34.7726 69.0771 34.4709 69.0771 34.1315V30.9761C69.0771 30.9006 69.0643 30.8503 69.0132 30.8126C68.9366 30.7372 68.7834 30.7372 68.694 30.8126C68.6557 30.8503 68.6302 30.9006 68.6302 30.9761V34.1315C68.6302 34.3955 68.5536 34.6469 68.4131 34.8481C68.2726 35.0492 68.0811 35.2126 67.8385 35.3383C67.5959 35.4515 67.3278 35.5143 67.0213 35.5143C66.7021 35.5143 66.4212 35.4515 66.1786 35.3383C65.9233 35.2252 65.7317 35.0618 65.5785 34.8606C65.4381 34.6469 65.3614 34.4081 65.3614 34.1441V30.9886C65.3614 30.9258 65.3487 30.8755 65.2976 30.8252C65.2721 30.7749 65.221 30.7623 65.1444 30.7623Z" fill="#3D9266"/>
<path d="M75.7296 35.8915C75.6274 35.8915 75.5508 35.8537 75.4742 35.7909C75.4104 35.728 75.3721 35.64 75.3721 35.5395V30.976C75.3721 30.8755 75.4104 30.8 75.4742 30.7246C75.5381 30.6617 75.6274 30.624 75.7168 30.624C75.819 30.624 75.8956 30.6617 75.9722 30.7246C76.036 30.7875 76.0743 30.8755 76.0743 30.976V35.1875H78.5514C78.6536 35.1875 78.7302 35.2252 78.8068 35.288C78.8706 35.3509 78.909 35.4389 78.909 35.5395C78.909 35.64 78.8706 35.7155 78.8068 35.7909C78.743 35.8537 78.6536 35.8915 78.5514 35.8915H75.7296Z" fill="#3D9266"/>
<path d="M78.5644 36.0298H75.7298C75.5894 36.0298 75.4745 35.9795 75.3851 35.8915C75.2957 35.8035 75.2446 35.6903 75.2446 35.5521V30.9886C75.2446 30.8503 75.2957 30.7372 75.3851 30.6492C75.5766 30.4606 75.8958 30.4732 76.0746 30.6492C76.164 30.7372 76.215 30.8629 76.215 30.9886V35.0743H78.5644C78.7049 35.0743 78.8198 35.1246 78.9091 35.2126C78.9985 35.3006 79.0496 35.4263 79.0496 35.5521C79.0496 35.6903 78.9985 35.8035 78.9091 35.8915C78.8198 35.9795 78.7049 36.0298 78.5644 36.0298ZM75.7298 30.7623C75.666 30.7623 75.6277 30.7875 75.5766 30.8252C75.5383 30.8629 75.5128 30.9132 75.5128 30.9761V35.5395C75.5128 35.6023 75.5383 35.6526 75.5766 35.6903C75.6149 35.7281 75.666 35.7532 75.7298 35.7532H78.5644C78.6282 35.7532 78.6793 35.7281 78.7176 35.6903C78.7559 35.6526 78.7815 35.6023 78.7815 35.5395C78.7815 35.4766 78.7559 35.4263 78.7176 35.3886C78.6793 35.3509 78.6282 35.3258 78.5644 35.3258H75.9469V30.9761C75.9469 30.9132 75.9214 30.8629 75.883 30.8252C75.8447 30.7749 75.7937 30.7623 75.7298 30.7623Z" fill="#3D9266"/>
<path d="M83.4292 31.2777C83.327 31.2777 83.2504 31.2526 83.1865 31.1897C83.1227 31.1269 83.0972 31.0515 83.0972 30.9509C83.0972 30.8503 83.1227 30.7749 83.1865 30.712C83.2504 30.6492 83.327 30.624 83.4292 30.624H87.0937C87.183 30.624 87.2724 30.6492 87.3363 30.712C87.4001 30.7749 87.4257 30.8503 87.4257 30.9509C87.4257 31.0389 87.4001 31.1269 87.3363 31.1897C87.2724 31.2526 87.1958 31.2777 87.0937 31.2777H83.4292ZM85.2678 35.8915C85.1656 35.8915 85.089 35.8537 85.0124 35.7909C84.9358 35.728 84.9103 35.64 84.9103 35.5395V30.624H85.6253V35.5395C85.6253 35.64 85.587 35.7155 85.5232 35.7909C85.4593 35.8663 85.3572 35.8915 85.2678 35.8915Z" fill="#3D9266"/>
<path d="M85.268 36.0297C85.1275 36.0297 85.0126 35.9794 84.9232 35.8914C84.8338 35.8034 84.7828 35.6777 84.7828 35.552V31.416H83.4421C83.3144 31.416 83.1995 31.3783 83.1101 31.2903C83.0207 31.2023 82.9824 31.0892 82.9824 30.9634C82.9824 30.8377 83.0207 30.7246 83.1101 30.6366C83.1995 30.5486 83.3144 30.5109 83.4421 30.5109H87.1066C87.2343 30.5109 87.3492 30.5486 87.4386 30.6366C87.528 30.7246 87.5663 30.8377 87.5663 30.9634C87.5663 31.0892 87.528 31.2023 87.4386 31.2903C87.3492 31.3783 87.2343 31.416 87.1066 31.416H85.7659V35.552C85.7659 35.6903 85.7149 35.8034 85.6255 35.8914C85.5233 35.9794 85.3957 36.0297 85.268 36.0297ZM85.0381 31.4034V35.5394C85.0381 35.6023 85.0637 35.6526 85.102 35.6903C85.1914 35.7783 85.3318 35.7783 85.4212 35.6903C85.4595 35.6526 85.485 35.6023 85.485 35.5394V31.4034H85.0381ZM85.7532 31.1394H87.0939C87.1577 31.1394 87.196 31.1269 87.2343 31.0892C87.2726 31.0514 87.2854 31.0137 87.2854 30.9509C87.2854 30.888 87.2726 30.8503 87.2343 30.8126C87.196 30.7749 87.1577 30.7623 87.0939 30.7623H85.7532V31.1394ZM85.0381 31.1394H85.485V30.7623H85.0381V31.1394ZM83.4293 30.7623C83.3655 30.7623 83.3272 30.7749 83.2889 30.8126C83.2506 30.8503 83.2378 30.888 83.2378 30.9509C83.2378 31.0137 83.2506 31.0514 83.2889 31.0892C83.3272 31.1269 83.3655 31.1394 83.4293 31.1394H84.77V30.7623H83.4293Z" fill="#3D9266"/>
<path d="M93.3629 35.8915C93.2607 35.8915 93.1841 35.8537 93.1075 35.7909C93.0437 35.728 93.0054 35.64 93.0054 35.5395V30.976C93.0054 30.8755 93.0437 30.7875 93.1075 30.7246C93.1714 30.6617 93.2607 30.624 93.3629 30.624C93.465 30.624 93.5544 30.6617 93.6183 30.7246C93.6821 30.7875 93.7204 30.8755 93.7204 30.976V35.5395C93.7204 35.64 93.6821 35.7155 93.6183 35.7909C93.5544 35.8663 93.465 35.8915 93.3629 35.8915Z" fill="#3D9266"/>
<path d="M93.3631 36.0298C93.2227 36.0298 93.1078 35.9795 93.0184 35.8915C92.929 35.8035 92.8779 35.6778 92.8779 35.5521V30.9886C92.8779 30.8503 92.929 30.7246 93.0184 30.6366C93.2099 30.4481 93.5419 30.4606 93.7206 30.6366C93.81 30.7246 93.8611 30.8378 93.8611 30.9886V35.5521C93.8611 35.6903 93.81 35.8035 93.7206 35.8915C93.6185 35.9795 93.5036 36.0298 93.3631 36.0298ZM93.3631 30.7623C93.2993 30.7623 93.2482 30.7875 93.1971 30.8252C93.1588 30.8629 93.1333 30.9132 93.1333 30.9886V35.5521C93.1333 35.6149 93.1588 35.6652 93.1971 35.7029C93.2865 35.7909 93.4397 35.7909 93.5163 35.7029C93.5547 35.6652 93.5802 35.6149 93.5802 35.5395V30.9761C93.5802 30.9132 93.5674 30.8629 93.5163 30.8126C93.478 30.7749 93.427 30.7623 93.3631 30.7623Z" fill="#3D9266"/>
<path d="M101.713 35.8915C101.573 35.8915 101.458 35.816 101.394 35.6652L99.3896 31.152C99.3257 31.0012 99.313 30.8755 99.364 30.7749C99.4151 30.6743 99.5045 30.624 99.6577 30.624C99.8237 30.624 99.9258 30.6995 99.9897 30.8377L101.752 34.9989H101.675L103.475 30.8377C103.514 30.7623 103.552 30.6995 103.603 30.6743C103.654 30.6492 103.718 30.6366 103.795 30.6366C103.935 30.6366 104.024 30.6869 104.076 30.7875C104.127 30.888 104.127 30.9886 104.076 31.1017L102.045 35.6777C102.007 35.7532 101.969 35.8035 101.918 35.8412C101.854 35.8789 101.79 35.8915 101.713 35.8915Z" fill="#3D9266"/>
<path d="M101.714 36.0297C101.573 36.0297 101.382 35.9794 101.267 35.728L99.262 31.2023C99.1854 31.0137 99.1726 30.8503 99.2492 30.712C99.3003 30.6114 99.4152 30.4857 99.6578 30.4857C99.8749 30.4857 100.028 30.5863 100.105 30.7749L101.701 34.5589L103.335 30.7749C103.386 30.6617 103.437 30.5863 103.514 30.5486C103.578 30.5109 103.667 30.4857 103.782 30.4857C104.025 30.4857 104.127 30.5989 104.191 30.6994C104.267 30.8377 104.267 30.9886 104.191 31.1394L102.16 35.7154C102.122 35.8034 102.058 35.8788 101.994 35.9291C101.918 36.0046 101.828 36.0297 101.714 36.0297ZM99.6578 30.7623C99.5301 30.7623 99.5046 30.8126 99.4918 30.8377C99.4535 30.9006 99.4663 30.9886 99.5174 31.1017L101.522 35.6149C101.586 35.7406 101.65 35.7531 101.726 35.7531C101.777 35.7531 101.816 35.7406 101.841 35.728C101.88 35.7029 101.905 35.6651 101.931 35.6149L103.961 31.0389C104.012 30.9383 103.986 30.8754 103.974 30.8377C103.961 30.8 103.922 30.7623 103.808 30.7623C103.731 30.7623 103.705 30.7749 103.68 30.7874C103.667 30.8 103.642 30.8126 103.603 30.888L101.867 34.9109L101.956 35.1371H101.471L101.56 34.9109L99.8621 30.888C99.8238 30.8 99.76 30.7623 99.6578 30.7623Z" fill="#3D9266"/>
<path d="M109.029 35.8915C108.902 35.8915 108.8 35.8412 108.736 35.728C108.672 35.6149 108.659 35.5017 108.71 35.3886L110.638 30.8629C110.702 30.6995 110.817 30.624 110.97 30.624C111.136 30.624 111.251 30.6995 111.302 30.8629L113.23 35.4012C113.281 35.5269 113.269 35.64 113.205 35.7406C113.141 35.8412 113.039 35.8915 112.911 35.8915C112.847 35.8915 112.783 35.8663 112.72 35.8286C112.656 35.7909 112.617 35.7406 112.592 35.6652L110.894 31.5166H111.085L109.361 35.6652C109.336 35.7406 109.285 35.7909 109.221 35.8286C109.157 35.8789 109.093 35.8915 109.029 35.8915ZM109.4 34.7349L109.668 34.1566H112.349L112.617 34.7349H109.4Z" fill="#3D9266"/>
<path d="M112.924 36.0297C112.835 36.0297 112.745 36.0046 112.656 35.9543C112.567 35.904 112.503 35.8286 112.465 35.728L112.107 34.8732H109.834L109.477 35.7406C109.438 35.8412 109.362 35.9166 109.285 35.9669C109.209 36.0172 109.119 36.0423 109.03 36.0423C108.851 36.0423 108.711 35.9669 108.621 35.816C108.532 35.6777 108.519 35.5143 108.596 35.3509L110.524 30.8252C110.639 30.5612 110.843 30.5109 110.983 30.5109C111.2 30.5109 111.366 30.624 111.443 30.8377L113.371 35.376C113.435 35.5394 113.422 35.7029 113.333 35.8412C113.243 35.9543 113.103 36.0297 112.924 36.0297ZM112.413 34.8732L112.72 35.64C112.733 35.6777 112.758 35.7154 112.797 35.7406C112.835 35.7657 112.873 35.7783 112.924 35.7783C113.014 35.7783 113.065 35.7532 113.103 35.6903C113.129 35.6526 113.154 35.5772 113.116 35.464L111.188 30.9257C111.149 30.8126 111.086 30.7749 110.971 30.7749C110.894 30.7749 110.817 30.7874 110.754 30.9257L108.826 35.4514C108.787 35.5394 108.787 35.6023 108.838 35.6777C108.902 35.7783 109.017 35.816 109.132 35.7406C109.17 35.7154 109.196 35.6903 109.221 35.64L109.541 34.8857H109.17L109.566 34.0434H109.885L110.83 31.7806L110.677 31.416H111.264L111.111 31.7806L112.043 34.0434H112.426L112.822 34.8857H112.413V34.8732ZM112.299 34.5966H112.413L112.26 34.2823H112.158L112.299 34.5966ZM109.949 34.5966H112.005L111.877 34.2823H110.077L109.949 34.5966ZM109.604 34.5966H109.655L109.783 34.2823H109.745L109.604 34.5966ZM110.192 34.0183H111.762L110.983 32.1074L110.192 34.0183Z" fill="#3D9266"/>
<path d="M125.399 31.2777C125.297 31.2777 125.22 31.2526 125.156 31.1897C125.092 31.1269 125.067 31.0515 125.067 30.9509C125.067 30.8503 125.092 30.7749 125.156 30.712C125.22 30.6492 125.297 30.624 125.399 30.624H129.063C129.166 30.624 129.242 30.6492 129.306 30.712C129.37 30.7749 129.395 30.8503 129.395 30.9509C129.395 31.0389 129.37 31.1269 129.306 31.1897C129.242 31.2526 129.166 31.2777 129.063 31.2777H125.399ZM127.238 35.8915C127.135 35.8915 127.059 35.8537 126.982 35.7909C126.918 35.728 126.88 35.64 126.88 35.5395V30.624H127.595V35.5395C127.595 35.64 127.557 35.7155 127.493 35.7909C127.429 35.8663 127.34 35.8915 127.238 35.8915Z" fill="#3D9266"/>
<path d="M127.238 36.0297C127.097 36.0297 126.982 35.9794 126.893 35.8914C126.804 35.8034 126.752 35.6777 126.752 35.552V31.416H125.412C125.284 31.416 125.169 31.3783 125.08 31.2903C124.99 31.2023 124.952 31.0892 124.952 30.9634C124.952 30.8377 124.99 30.7246 125.08 30.6366C125.169 30.5486 125.284 30.5109 125.412 30.5109H129.076C129.204 30.5109 129.319 30.5486 129.408 30.6366C129.498 30.7246 129.536 30.8377 129.536 30.9634C129.536 31.0892 129.498 31.2023 129.408 31.2903C129.319 31.3783 129.204 31.416 129.076 31.416H127.736V35.552C127.736 35.6903 127.685 35.8034 127.595 35.8914C127.506 35.9794 127.378 36.0297 127.238 36.0297ZM127.021 31.4034V35.5394C127.021 35.6023 127.046 35.6526 127.084 35.6903C127.174 35.7783 127.314 35.7783 127.404 35.6903C127.442 35.6526 127.468 35.6023 127.468 35.5394V31.4034H127.021ZM127.736 31.1394H129.076C129.14 31.1394 129.178 31.1269 129.217 31.0892C129.255 31.0514 129.268 31.0137 129.268 30.9509C129.268 30.888 129.255 30.8503 129.217 30.8126C129.178 30.7749 129.14 30.7623 129.076 30.7623H127.736V31.1394ZM127.021 31.1394H127.468V30.7623H127.021V31.1394ZM125.399 30.7623C125.335 30.7623 125.297 30.7749 125.259 30.8126C125.22 30.8503 125.208 30.888 125.208 30.9509C125.208 31.0137 125.22 31.0514 125.259 31.0892C125.297 31.1269 125.335 31.1394 125.399 31.1394H126.74V30.7623H125.399Z" fill="#3D9266"/>
<path d="M137.222 36.0046C136.788 36.0046 136.392 35.9292 136.06 35.7657C135.728 35.6023 135.46 35.3886 135.269 35.0994C135.077 34.8103 134.988 34.496 134.988 34.1314V30.976C134.988 30.8755 135.026 30.7875 135.09 30.7246C135.154 30.6617 135.243 30.624 135.345 30.624C135.447 30.624 135.537 30.6617 135.601 30.7246C135.665 30.7875 135.703 30.8755 135.703 30.976V34.1314C135.703 34.3703 135.767 34.584 135.894 34.7726C136.022 34.9612 136.201 35.0994 136.431 35.2126C136.66 35.3132 136.929 35.376 137.222 35.376C137.516 35.376 137.759 35.3257 137.988 35.2126C138.205 35.112 138.384 34.9612 138.512 34.7726C138.64 34.584 138.703 34.3703 138.703 34.1314V30.976C138.703 30.8755 138.742 30.7875 138.806 30.7246C138.869 30.6617 138.959 30.624 139.061 30.624C139.163 30.624 139.252 30.6617 139.316 30.7246C139.38 30.7875 139.418 30.8755 139.418 30.976V34.1314C139.418 34.496 139.329 34.8229 139.138 35.0994C138.959 35.3886 138.691 35.6023 138.371 35.7657C138.027 35.9292 137.644 36.0046 137.222 36.0046Z" fill="#3D9266"/>
<path d="M137.223 36.1303C136.763 36.1303 136.354 36.0423 135.997 35.8789C135.639 35.7155 135.358 35.4766 135.154 35.1623C134.95 34.8606 134.848 34.5086 134.848 34.1189V30.9635C134.848 30.8252 134.899 30.7121 134.988 30.6115C135.18 30.4229 135.512 30.4355 135.69 30.6115C135.78 30.6995 135.831 30.8252 135.831 30.9635V34.1189C135.831 34.3326 135.882 34.5212 135.997 34.6846C136.112 34.8481 136.278 34.9863 136.482 35.0743C136.699 35.1749 136.942 35.2252 137.223 35.2252C137.491 35.2252 137.721 35.1749 137.925 35.0743C138.129 34.9738 138.282 34.8481 138.397 34.6846C138.512 34.5212 138.563 34.3326 138.563 34.1189V30.9635C138.563 30.8252 138.614 30.6995 138.704 30.6115C138.895 30.4229 139.227 30.4355 139.406 30.6115C139.495 30.6995 139.534 30.8126 139.534 30.9509V34.1063C139.534 34.4961 139.432 34.8481 139.24 35.1498C139.048 35.4515 138.768 35.6903 138.41 35.8663C138.065 36.0549 137.669 36.1303 137.223 36.1303ZM135.333 30.7623C135.269 30.7623 135.218 30.7875 135.167 30.8252C135.129 30.8629 135.103 30.9132 135.103 30.9886V34.1441C135.103 34.4835 135.192 34.7852 135.371 35.0366C135.55 35.3006 135.793 35.5018 136.112 35.6526C136.431 35.8035 136.801 35.8789 137.223 35.8789C137.618 35.8789 137.989 35.8035 138.295 35.6526C138.602 35.5018 138.844 35.3006 139.01 35.0366C139.176 34.7726 139.266 34.4709 139.266 34.1315V30.9761C139.266 30.9132 139.253 30.8503 139.202 30.8126C139.125 30.7372 138.972 30.7372 138.882 30.8126C138.844 30.8503 138.819 30.9006 138.819 30.9761V34.1315C138.819 34.3955 138.742 34.6469 138.602 34.8481C138.461 35.0492 138.27 35.2126 138.027 35.3383C137.784 35.4515 137.516 35.5143 137.21 35.5143C136.891 35.5143 136.61 35.4515 136.367 35.3383C136.112 35.2252 135.92 35.0618 135.767 34.8606C135.627 34.6469 135.55 34.4081 135.55 34.1441V30.9886C135.55 30.9258 135.537 30.8755 135.486 30.8252C135.461 30.7749 135.409 30.7623 135.333 30.7623Z" fill="#3D9266"/>
<path d="M154.205 35.8915C154.064 35.8915 153.949 35.816 153.885 35.6652L151.881 31.152C151.817 31.0012 151.804 30.8755 151.855 30.7749C151.906 30.6743 151.996 30.624 152.149 30.624C152.315 30.624 152.417 30.6995 152.481 30.8377L154.243 34.9989H154.166L155.967 30.8377C156.005 30.7623 156.043 30.6995 156.094 30.6743C156.145 30.6492 156.209 30.6366 156.286 30.6366C156.426 30.6366 156.516 30.6869 156.567 30.7875C156.618 30.888 156.618 30.9886 156.567 31.1017L154.537 35.6777C154.498 35.7532 154.46 35.8035 154.409 35.8412C154.345 35.8789 154.281 35.8915 154.205 35.8915Z" fill="#3D9266"/>
<path d="M154.205 36.0297C154.064 36.0297 153.873 35.9794 153.758 35.728L151.753 31.2023C151.677 31.0137 151.664 30.8503 151.74 30.712C151.792 30.6114 151.906 30.4857 152.149 30.4857C152.366 30.4857 152.519 30.5863 152.596 30.7749L154.192 34.5589L155.826 30.7749C155.877 30.6617 155.928 30.5863 156.005 30.5486C156.069 30.5109 156.158 30.4857 156.273 30.4857C156.516 30.4857 156.618 30.5989 156.682 30.6994C156.758 30.8377 156.758 30.9886 156.682 31.1394L154.652 35.7154C154.613 35.8034 154.549 35.8788 154.486 35.9291C154.409 36.0046 154.307 36.0297 154.205 36.0297ZM152.136 30.7623C152.009 30.7623 151.983 30.8126 151.97 30.8377C151.932 30.9006 151.945 30.9886 151.996 31.1017L154 35.6149C154.064 35.7406 154.128 35.7531 154.205 35.7531C154.256 35.7531 154.294 35.7406 154.32 35.728C154.358 35.7029 154.383 35.6651 154.409 35.6149L156.439 31.0389C156.49 30.9383 156.465 30.8754 156.452 30.8377C156.439 30.8 156.401 30.7623 156.286 30.7623C156.209 30.7623 156.184 30.7749 156.158 30.7874C156.145 30.8 156.12 30.8126 156.082 30.888L154.345 34.9109L154.435 35.1371H153.949L154.039 34.9109L152.341 30.888C152.302 30.8 152.251 30.7623 152.136 30.7623Z" fill="#3D9266"/>
<path d="M162.568 35.8915C162.466 35.8915 162.389 35.8537 162.313 35.7909C162.249 35.728 162.21 35.64 162.21 35.5395V30.976C162.21 30.8755 162.249 30.7875 162.313 30.7246C162.376 30.6617 162.466 30.624 162.568 30.624C162.67 30.624 162.759 30.6617 162.823 30.7246C162.887 30.7875 162.925 30.8755 162.925 30.976V35.5395C162.925 35.64 162.887 35.7155 162.823 35.7909C162.759 35.8663 162.67 35.8915 162.568 35.8915Z" fill="#3D9266"/>
<path d="M162.568 36.0298C162.427 36.0298 162.312 35.9795 162.223 35.8915C162.134 35.8035 162.083 35.6778 162.083 35.5521V30.9886C162.083 30.8503 162.134 30.7372 162.223 30.6366C162.414 30.4481 162.746 30.4606 162.925 30.6366C163.015 30.7246 163.066 30.8503 163.066 30.9886V35.5521C163.066 35.6903 163.015 35.8035 162.925 35.8915C162.823 35.9795 162.708 36.0298 162.568 36.0298ZM162.568 30.7623C162.504 30.7623 162.453 30.7875 162.402 30.8252C162.363 30.8629 162.338 30.9132 162.338 30.9886V35.5521C162.338 35.6149 162.363 35.6652 162.402 35.7029C162.491 35.7909 162.644 35.7909 162.721 35.7029C162.759 35.6652 162.785 35.6149 162.785 35.5395V30.9761C162.785 30.9132 162.772 30.8629 162.721 30.8126C162.683 30.7749 162.632 30.7623 162.568 30.7623Z" fill="#3D9266"/>
<path d="M169.45 35.8915C169.348 35.8915 169.271 35.8537 169.194 35.7909C169.118 35.728 169.092 35.64 169.092 35.5395V30.976C169.092 30.8755 169.131 30.7875 169.194 30.7246C169.258 30.6617 169.348 30.624 169.45 30.624H170.688C171.084 30.624 171.442 30.6869 171.761 30.8126C172.08 30.9383 172.361 31.1269 172.604 31.3532C172.846 31.592 173.025 31.8686 173.153 32.1829C173.28 32.4972 173.344 32.8492 173.344 33.2389C173.344 33.6286 173.28 33.9806 173.153 34.3075C173.025 34.6343 172.846 34.9109 172.604 35.1497C172.361 35.3886 172.093 35.5646 171.761 35.6903C171.442 35.816 171.084 35.8789 170.688 35.8789H169.45V35.8915ZM169.795 35.2755H170.676C171.059 35.2755 171.403 35.1875 171.697 35.0115C171.991 34.8355 172.221 34.5966 172.387 34.2949C172.552 33.9932 172.642 33.6412 172.642 33.2515C172.642 32.8617 172.552 32.5097 172.387 32.208C172.221 31.9063 171.991 31.6675 171.697 31.504C171.403 31.328 171.059 31.2526 170.676 31.2526H169.795V35.2755Z" fill="#3D9266"/>
<path d="M170.689 36.0298H169.45C169.31 36.0298 169.195 35.9796 169.105 35.8916C169.016 35.8036 168.965 35.6778 168.965 35.5521V30.9887C168.965 30.8504 169.016 30.7373 169.105 30.6367C169.195 30.5487 169.322 30.4984 169.45 30.4984H170.689C171.097 30.4984 171.48 30.5613 171.812 30.6996C172.144 30.8378 172.451 31.0264 172.693 31.2778C172.936 31.5293 173.14 31.8184 173.268 32.1578C173.395 32.4973 173.472 32.8618 173.472 33.2641C173.472 33.6664 173.408 34.0436 173.268 34.3704C173.127 34.7098 172.936 34.999 172.693 35.2504C172.438 35.5018 172.144 35.6904 171.812 35.8287C171.467 35.9544 171.097 36.0298 170.689 36.0298ZM169.45 30.7624C169.386 30.7624 169.335 30.7876 169.284 30.8253C169.246 30.863 169.22 30.9133 169.22 30.9887V35.5521C169.22 35.615 169.246 35.6653 169.284 35.703C169.322 35.7407 169.373 35.7658 169.437 35.7658H170.676C171.046 35.7658 171.391 35.703 171.697 35.5773C172.004 35.4516 172.272 35.2881 172.489 35.0618C172.706 34.8356 172.885 34.5716 173.012 34.2698C173.14 33.9681 173.191 33.6287 173.191 33.2516C173.191 32.887 173.127 32.5476 173.012 32.2458C172.898 31.9441 172.719 31.6801 172.489 31.4538C172.259 31.2276 172.004 31.0641 171.697 30.9384C171.391 30.8127 171.046 30.7498 170.676 30.7498H169.45V30.7624ZM170.689 35.4013H169.667V31.1144H170.689C171.097 31.1144 171.455 31.2024 171.774 31.391C172.093 31.567 172.336 31.831 172.514 32.1453C172.693 32.4596 172.783 32.8367 172.783 33.2516C172.783 33.6664 172.693 34.031 172.514 34.3578C172.336 34.6847 172.08 34.9361 171.774 35.1247C171.455 35.3133 171.097 35.4013 170.689 35.4013ZM169.935 35.1373H170.689C171.046 35.1373 171.365 35.0618 171.633 34.8984C171.902 34.735 172.119 34.5087 172.285 34.2321C172.438 33.9556 172.527 33.6161 172.527 33.2516C172.527 32.8744 172.451 32.5476 172.285 32.271C172.131 31.9944 171.914 31.7681 171.633 31.6173C171.365 31.4538 171.046 31.3784 170.689 31.3784H169.935V35.1373Z" fill="#3D9266"/>
<path d="M178.899 35.8915C178.771 35.8915 178.669 35.8412 178.605 35.728C178.541 35.6149 178.528 35.5017 178.579 35.3886L180.507 30.8629C180.571 30.6995 180.686 30.624 180.839 30.624C181.005 30.624 181.12 30.6995 181.171 30.8629L183.099 35.4012C183.15 35.5269 183.138 35.64 183.074 35.7406C183.01 35.8412 182.908 35.8915 182.78 35.8915C182.716 35.8915 182.652 35.8663 182.589 35.8286C182.525 35.7909 182.486 35.7406 182.461 35.6652L180.763 31.5166H180.954L179.231 35.6652C179.205 35.7406 179.154 35.7909 179.09 35.8286C179.026 35.8789 178.962 35.8915 178.899 35.8915ZM179.256 34.7349L179.524 34.1566H182.206L182.474 34.7349H179.256Z" fill="#3D9266"/>
<path d="M182.793 36.0297C182.704 36.0297 182.615 36.0046 182.525 35.9543C182.436 35.904 182.372 35.8286 182.334 35.728L181.976 34.8732H179.703L179.346 35.7406C179.308 35.8412 179.231 35.9166 179.154 35.9669C179.078 36.0172 178.988 36.0423 178.899 36.0423C178.72 36.0423 178.58 35.9669 178.49 35.816C178.401 35.6777 178.388 35.5143 178.465 35.3509L180.393 30.8252C180.508 30.5612 180.712 30.5109 180.853 30.5109C181.07 30.5109 181.236 30.624 181.312 30.8377L183.24 35.376C183.304 35.5394 183.291 35.7029 183.202 35.8412C183.113 35.9543 182.972 36.0297 182.793 36.0297ZM182.27 34.8732L182.576 35.64C182.589 35.6777 182.615 35.7154 182.653 35.7406C182.691 35.7657 182.729 35.7783 182.781 35.7783C182.87 35.7783 182.921 35.7532 182.959 35.6903C182.985 35.6526 183.01 35.5772 182.972 35.464L181.044 30.9257C181.006 30.8126 180.942 30.7749 180.827 30.7749C180.75 30.7749 180.674 30.7874 180.61 30.9257L178.682 35.4514C178.644 35.5394 178.644 35.6023 178.695 35.6777C178.759 35.7783 178.873 35.816 178.988 35.7406C179.027 35.7154 179.052 35.6903 179.078 35.64L179.397 34.8857H179.027L179.422 34.0434H179.742L180.687 31.7806L180.533 31.416H181.121L180.967 31.7806L181.9 34.0434H182.283L182.678 34.8857H182.27V34.8732ZM182.168 34.5966H182.283L182.129 34.2823H182.027L182.168 34.5966ZM179.818 34.5966H181.874L181.746 34.2823H179.946L179.818 34.5966ZM179.474 34.5966H179.525L179.652 34.2823H179.614L179.474 34.5966ZM180.061 34.0183H181.631L180.853 32.1074L180.061 34.0183Z" fill="#3D9266"/>
<path d="M22 44.0125C34.1503 44.0125 44 34.1628 44 22.0125C44 9.86219 34.1503 0.0124512 22 0.0124512C9.84974 0.0124512 0 9.86219 0 22.0125C0 34.1628 9.84974 44.0125 22 44.0125Z" fill="#3D9266"/>
<path d="M17.8619 15.1448L20.4783 17.6857C20.5411 17.7485 20.5789 17.8366 20.5789 17.9246V19.9875C20.5789 20.2517 20.2896 20.4152 20.0632 20.2768L16.5034 17.9875C16.3273 17.8743 16.0883 17.9498 16.0129 18.1511C15.799 18.6919 15.4217 19.7108 15.2581 20.3397C15.2204 20.4907 15.2833 20.6542 15.4217 20.7171L20.3902 23.3209C20.5034 23.3838 20.5663 23.497 20.5663 23.6228V25.7485C20.5663 26.0001 20.3022 26.1636 20.0883 26.0504L14.9814 23.6102C14.7801 23.5096 14.5286 23.6479 14.5034 23.8743C14.4279 24.4781 14.2896 25.5221 14.2518 26.0001C14.2393 26.1385 14.3147 26.2768 14.4531 26.3397L20.4028 29.0064C20.5286 29.0567 20.604 29.1825 20.604 29.3083V31.5473C20.604 31.736 20.755 31.8869 20.9437 31.8869H23.0694C23.2581 31.8869 23.4091 31.736 23.4091 31.5473V29.2831C23.4091 29.1448 23.4845 29.0316 23.6103 28.9813L29.56 26.3523C29.6984 26.2894 29.7738 26.1511 29.7613 26.0127C29.711 25.5473 29.6103 24.5158 29.5097 23.8743C29.472 23.6479 29.233 23.5221 29.0317 23.6228L23.8745 26.063C23.6481 26.1636 23.3965 26.0001 23.3965 25.7611V23.6353C23.3965 23.5096 23.472 23.3963 23.5852 23.3335L28.6166 20.7423C28.7676 20.6668 28.8305 20.4907 28.7801 20.3397C28.6166 19.8492 28.2644 18.8051 28.0632 18.1888C28.0003 17.9875 27.7487 17.8995 27.56 18.0127L23.95 20.2894C23.7235 20.4278 23.4342 20.2643 23.4342 20.0001V17.9498C23.4342 17.8618 23.472 17.7737 23.5349 17.7108L26.1638 15.1825C26.277 15.0693 26.3022 14.8932 26.2141 14.7548C25.7738 14.0756 24.3273 12.1762 22.0128 12.1636C19.95 12.1511 18.365 14.0253 17.8493 14.7045C17.7235 14.8303 17.7487 15.019 17.8619 15.1448Z" fill="white"/>
</g>
<defs>
<clipPath id="clip0">
<rect width="220" height="44" fill="white"/>
</clipPath>
</defs>
</svg>
